<?xml version="1.0" encoding="utf-8" standalone="no"?>
<!DOCTYPE svg PUBLIC "-//W3C//DTD SVG 1.1//EN"
  "http://www.w3.org/Graphics/SVG/1.1/DTD/svg11.dtd">
<!-- Created with matplotlib (https://matplotlib.org/) -->
<svg height="522pt" version="1.1" viewBox="0 0 720 522" width="720pt" xmlns="http://www.w3.org/2000/svg" xmlns:xlink="http://www.w3.org/1999/xlink">
 <defs>
  <style type="text/css">
*{stroke-linecap:butt;stroke-linejoin:round;}
  </style>
 </defs>
 <g id="figure_1">
  <g id="patch_1">
   <path d="M 0 522 
L 720 522 
L 720 0 
L 0 0 
z
" style="fill:#ffffff;"/>
  </g>
  <g id="axes_1">
   <g id="patch_2">
    <path d="M 168.03 464.58 
L 569.97 464.58 
L 569.97 62.64 
L 168.03 62.64 
z
" style="fill:#ffffff;"/>
   </g>
   <g id="matplotlib.axis_1">
    <g id="xtick_1">
     <g id="line2d_1">
      <defs>
       <path d="M 0 0 
L 0 3.5 
" id="m63a7d9d80a" style="stroke:#000000;stroke-width:0.8;"/>
      </defs>
      <g>
       <use style="stroke:#000000;stroke-width:0.8;" x="186.3" xlink:href="#m63a7d9d80a" y="464.58"/>
      </g>
     </g>
     <g id="text_1">
      <!-- 0.0 -->
      <defs>
       <path d="M 31.78125 66.40625 
Q 24.171875 66.40625 20.328125 58.90625 
Q 16.5 51.421875 16.5 36.375 
Q 16.5 21.390625 20.328125 13.890625 
Q 24.171875 6.390625 31.78125 6.390625 
Q 39.453125 6.390625 43.28125 13.890625 
Q 47.125 21.390625 47.125 36.375 
Q 47.125 51.421875 43.28125 58.90625 
Q 39.453125 66.40625 31.78125 66.40625 
z
M 31.78125 74.21875 
Q 44.046875 74.21875 50.515625 64.515625 
Q 56.984375 54.828125 56.984375 36.375 
Q 56.984375 17.96875 50.515625 8.265625 
Q 44.046875 -1.421875 31.78125 -1.421875 
Q 19.53125 -1.421875 13.0625 8.265625 
Q 6.59375 17.96875 6.59375 36.375 
Q 6.59375 54.828125 13.0625 64.515625 
Q 19.53125 74.21875 31.78125 74.21875 
z
" id="DejaVuSans-48"/>
       <path d="M 10.6875 12.40625 
L 21 12.40625 
L 21 0 
L 10.6875 0 
z
" id="DejaVuSans-46"/>
      </defs>
      <g transform="translate(178.348438 479.178438)scale(0.1 -0.1)">
       <use xlink:href="#DejaVuSans-48"/>
       <use x="63.623047" xlink:href="#DejaVuSans-46"/>
       <use x="95.410156" xlink:href="#DejaVuSans-48"/>
      </g>
     </g>
    </g>
    <g id="xtick_2">
     <g id="line2d_2">
      <g>
       <use style="stroke:#000000;stroke-width:0.8;" x="259.38" xlink:href="#m63a7d9d80a" y="464.58"/>
      </g>
     </g>
     <g id="text_2">
      <!-- 0.2 -->
      <defs>
       <path d="M 19.1875 8.296875 
L 53.609375 8.296875 
L 53.609375 0 
L 7.328125 0 
L 7.328125 8.296875 
Q 12.9375 14.109375 22.625 23.890625 
Q 32.328125 33.6875 34.8125 36.53125 
Q 39.546875 41.84375 41.421875 45.53125 
Q 43.3125 49.21875 43.3125 52.78125 
Q 43.3125 58.59375 39.234375 62.25 
Q 35.15625 65.921875 28.609375 65.921875 
Q 23.96875 65.921875 18.8125 64.3125 
Q 13.671875 62.703125 7.8125 59.421875 
L 7.8125 69.390625 
Q 13.765625 71.78125 18.9375 73 
Q 24.125 74.21875 28.421875 74.21875 
Q 39.75 74.21875 46.484375 68.546875 
Q 53.21875 62.890625 53.21875 53.421875 
Q 53.21875 48.921875 51.53125 44.890625 
Q 49.859375 40.875 45.40625 35.40625 
Q 44.1875 33.984375 37.640625 27.21875 
Q 31.109375 20.453125 19.1875 8.296875 
z
" id="DejaVuSans-50"/>
      </defs>
      <g transform="translate(251.428438 479.178438)scale(0.1 -0.1)">
       <use xlink:href="#DejaVuSans-48"/>
       <use x="63.623047" xlink:href="#DejaVuSans-46"/>
       <use x="95.410156" xlink:href="#DejaVuSans-50"/>
      </g>
     </g>
    </g>
    <g id="xtick_3">
     <g id="line2d_3">
      <g>
       <use style="stroke:#000000;stroke-width:0.8;" x="332.46" xlink:href="#m63a7d9d80a" y="464.58"/>
      </g>
     </g>
     <g id="text_3">
      <!-- 0.4 -->
      <defs>
       <path d="M 37.796875 64.3125 
L 12.890625 25.390625 
L 37.796875 25.390625 
z
M 35.203125 72.90625 
L 47.609375 72.90625 
L 47.609375 25.390625 
L 58.015625 25.390625 
L 58.015625 17.1875 
L 47.609375 17.1875 
L 47.609375 0 
L 37.796875 0 
L 37.796875 17.1875 
L 4.890625 17.1875 
L 4.890625 26.703125 
z
" id="DejaVuSans-52"/>
      </defs>
      <g transform="translate(324.508438 479.178438)scale(0.1 -0.1)">
       <use xlink:href="#DejaVuSans-48"/>
       <use x="63.623047" xlink:href="#DejaVuSans-46"/>
       <use x="95.410156" xlink:href="#DejaVuSans-52"/>
      </g>
     </g>
    </g>
    <g id="xtick_4">
     <g id="line2d_4">
      <g>
       <use style="stroke:#000000;stroke-width:0.8;" x="405.54" xlink:href="#m63a7d9d80a" y="464.58"/>
      </g>
     </g>
     <g id="text_4">
      <!-- 0.6 -->
      <defs>
       <path d="M 33.015625 40.375 
Q 26.375 40.375 22.484375 35.828125 
Q 18.609375 31.296875 18.609375 23.390625 
Q 18.609375 15.53125 22.484375 10.953125 
Q 26.375 6.390625 33.015625 6.390625 
Q 39.65625 6.390625 43.53125 10.953125 
Q 47.40625 15.53125 47.40625 23.390625 
Q 47.40625 31.296875 43.53125 35.828125 
Q 39.65625 40.375 33.015625 40.375 
z
M 52.59375 71.296875 
L 52.59375 62.3125 
Q 48.875 64.0625 45.09375 64.984375 
Q 41.3125 65.921875 37.59375 65.921875 
Q 27.828125 65.921875 22.671875 59.328125 
Q 17.53125 52.734375 16.796875 39.40625 
Q 19.671875 43.65625 24.015625 45.921875 
Q 28.375 48.1875 33.59375 48.1875 
Q 44.578125 48.1875 50.953125 41.515625 
Q 57.328125 34.859375 57.328125 23.390625 
Q 57.328125 12.15625 50.6875 5.359375 
Q 44.046875 -1.421875 33.015625 -1.421875 
Q 20.359375 -1.421875 13.671875 8.265625 
Q 6.984375 17.96875 6.984375 36.375 
Q 6.984375 53.65625 15.1875 63.9375 
Q 23.390625 74.21875 37.203125 74.21875 
Q 40.921875 74.21875 44.703125 73.484375 
Q 48.484375 72.75 52.59375 71.296875 
z
" id="DejaVuSans-54"/>
      </defs>
      <g transform="translate(397.588438 479.178438)scale(0.1 -0.1)">
       <use xlink:href="#DejaVuSans-48"/>
       <use x="63.623047" xlink:href="#DejaVuSans-46"/>
       <use x="95.410156" xlink:href="#DejaVuSans-54"/>
      </g>
     </g>
    </g>
    <g id="xtick_5">
     <g id="line2d_5">
      <g>
       <use style="stroke:#000000;stroke-width:0.8;" x="478.62" xlink:href="#m63a7d9d80a" y="464.58"/>
      </g>
     </g>
     <g id="text_5">
      <!-- 0.8 -->
      <defs>
       <path d="M 31.78125 34.625 
Q 24.75 34.625 20.71875 30.859375 
Q 16.703125 27.09375 16.703125 20.515625 
Q 16.703125 13.921875 20.71875 10.15625 
Q 24.75 6.390625 31.78125 6.390625 
Q 38.8125 6.390625 42.859375 10.171875 
Q 46.921875 13.96875 46.921875 20.515625 
Q 46.921875 27.09375 42.890625 30.859375 
Q 38.875 34.625 31.78125 34.625 
z
M 21.921875 38.8125 
Q 15.578125 40.375 12.03125 44.71875 
Q 8.5 49.078125 8.5 55.328125 
Q 8.5 64.0625 14.71875 69.140625 
Q 20.953125 74.21875 31.78125 74.21875 
Q 42.671875 74.21875 48.875 69.140625 
Q 55.078125 64.0625 55.078125 55.328125 
Q 55.078125 49.078125 51.53125 44.71875 
Q 48 40.375 41.703125 38.8125 
Q 48.828125 37.15625 52.796875 32.3125 
Q 56.78125 27.484375 56.78125 20.515625 
Q 56.78125 9.90625 50.3125 4.234375 
Q 43.84375 -1.421875 31.78125 -1.421875 
Q 19.734375 -1.421875 13.25 4.234375 
Q 6.78125 9.90625 6.78125 20.515625 
Q 6.78125 27.484375 10.78125 32.3125 
Q 14.796875 37.15625 21.921875 38.8125 
z
M 18.3125 54.390625 
Q 18.3125 48.734375 21.84375 45.5625 
Q 25.390625 42.390625 31.78125 42.390625 
Q 38.140625 42.390625 41.71875 45.5625 
Q 45.3125 48.734375 45.3125 54.390625 
Q 45.3125 60.0625 41.71875 63.234375 
Q 38.140625 66.40625 31.78125 66.40625 
Q 25.390625 66.40625 21.84375 63.234375 
Q 18.3125 60.0625 18.3125 54.390625 
z
" id="DejaVuSans-56"/>
      </defs>
      <g transform="translate(470.668438 479.178438)scale(0.1 -0.1)">
       <use xlink:href="#DejaVuSans-48"/>
       <use x="63.623047" xlink:href="#DejaVuSans-46"/>
       <use x="95.410156" xlink:href="#DejaVuSans-56"/>
      </g>
     </g>
    </g>
    <g id="xtick_6">
     <g id="line2d_6">
      <g>
       <use style="stroke:#000000;stroke-width:0.8;" x="551.7" xlink:href="#m63a7d9d80a" y="464.58"/>
      </g>
     </g>
     <g id="text_6">
      <!-- 1.0 -->
      <defs>
       <path d="M 12.40625 8.296875 
L 28.515625 8.296875 
L 28.515625 63.921875 
L 10.984375 60.40625 
L 10.984375 69.390625 
L 28.421875 72.90625 
L 38.28125 72.90625 
L 38.28125 8.296875 
L 54.390625 8.296875 
L 54.390625 0 
L 12.40625 0 
z
" id="DejaVuSans-49"/>
      </defs>
      <g transform="translate(543.748438 479.178438)scale(0.1 -0.1)">
       <use xlink:href="#DejaVuSans-49"/>
       <use x="63.623047" xlink:href="#DejaVuSans-46"/>
       <use x="95.410156" xlink:href="#DejaVuSans-48"/>
      </g>
     </g>
    </g>
    <g id="text_7">
     <!-- False positive rate -->
     <defs>
      <path d="M 9.8125 72.90625 
L 51.703125 72.90625 
L 51.703125 64.59375 
L 19.671875 64.59375 
L 19.671875 43.109375 
L 48.578125 43.109375 
L 48.578125 34.8125 
L 19.671875 34.8125 
L 19.671875 0 
L 9.8125 0 
z
" id="DejaVuSans-70"/>
      <path d="M 34.28125 27.484375 
Q 23.390625 27.484375 19.1875 25 
Q 14.984375 22.515625 14.984375 16.5 
Q 14.984375 11.71875 18.140625 8.90625 
Q 21.296875 6.109375 26.703125 6.109375 
Q 34.1875 6.109375 38.703125 11.40625 
Q 43.21875 16.703125 43.21875 25.484375 
L 43.21875 27.484375 
z
M 52.203125 31.203125 
L 52.203125 0 
L 43.21875 0 
L 43.21875 8.296875 
Q 40.140625 3.328125 35.546875 0.953125 
Q 30.953125 -1.421875 24.3125 -1.421875 
Q 15.921875 -1.421875 10.953125 3.296875 
Q 6 8.015625 6 15.921875 
Q 6 25.140625 12.171875 29.828125 
Q 18.359375 34.515625 30.609375 34.515625 
L 43.21875 34.515625 
L 43.21875 35.40625 
Q 43.21875 41.609375 39.140625 45 
Q 35.0625 48.390625 27.6875 48.390625 
Q 23 48.390625 18.546875 47.265625 
Q 14.109375 46.140625 10.015625 43.890625 
L 10.015625 52.203125 
Q 14.9375 54.109375 19.578125 55.046875 
Q 24.21875 56 28.609375 56 
Q 40.484375 56 46.34375 49.84375 
Q 52.203125 43.703125 52.203125 31.203125 
z
" id="DejaVuSans-97"/>
      <path d="M 9.421875 75.984375 
L 18.40625 75.984375 
L 18.40625 0 
L 9.421875 0 
z
" id="DejaVuSans-108"/>
      <path d="M 44.28125 53.078125 
L 44.28125 44.578125 
Q 40.484375 46.53125 36.375 47.5 
Q 32.28125 48.484375 27.875 48.484375 
Q 21.1875 48.484375 17.84375 46.4375 
Q 14.5 44.390625 14.5 40.28125 
Q 14.5 37.15625 16.890625 35.375 
Q 19.28125 33.59375 26.515625 31.984375 
L 29.59375 31.296875 
Q 39.15625 29.25 43.1875 25.515625 
Q 47.21875 21.78125 47.21875 15.09375 
Q 47.21875 7.46875 41.1875 3.015625 
Q 35.15625 -1.421875 24.609375 -1.421875 
Q 20.21875 -1.421875 15.453125 -0.5625 
Q 10.6875 0.296875 5.421875 2 
L 5.421875 11.28125 
Q 10.40625 8.6875 15.234375 7.390625 
Q 20.0625 6.109375 24.8125 6.109375 
Q 31.15625 6.109375 34.5625 8.28125 
Q 37.984375 10.453125 37.984375 14.40625 
Q 37.984375 18.0625 35.515625 20.015625 
Q 33.0625 21.96875 24.703125 23.78125 
L 21.578125 24.515625 
Q 13.234375 26.265625 9.515625 29.90625 
Q 5.8125 33.546875 5.8125 39.890625 
Q 5.8125 47.609375 11.28125 51.796875 
Q 16.75 56 26.8125 56 
Q 31.78125 56 36.171875 55.265625 
Q 40.578125 54.546875 44.28125 53.078125 
z
" id="DejaVuSans-115"/>
      <path d="M 56.203125 29.59375 
L 56.203125 25.203125 
L 14.890625 25.203125 
Q 15.484375 15.921875 20.484375 11.0625 
Q 25.484375 6.203125 34.421875 6.203125 
Q 39.59375 6.203125 44.453125 7.46875 
Q 49.3125 8.734375 54.109375 11.28125 
L 54.109375 2.78125 
Q 49.265625 0.734375 44.1875 -0.34375 
Q 39.109375 -1.421875 33.890625 -1.421875 
Q 20.796875 -1.421875 13.15625 6.1875 
Q 5.515625 13.8125 5.515625 26.8125 
Q 5.515625 40.234375 12.765625 48.109375 
Q 20.015625 56 32.328125 56 
Q 43.359375 56 49.78125 48.890625 
Q 56.203125 41.796875 56.203125 29.59375 
z
M 47.21875 32.234375 
Q 47.125 39.59375 43.09375 43.984375 
Q 39.0625 48.390625 32.421875 48.390625 
Q 24.90625 48.390625 20.390625 44.140625 
Q 15.875 39.890625 15.1875 32.171875 
z
" id="DejaVuSans-101"/>
      <path id="DejaVuSans-32"/>
      <path d="M 18.109375 8.203125 
L 18.109375 -20.796875 
L 9.078125 -20.796875 
L 9.078125 54.6875 
L 18.109375 54.6875 
L 18.109375 46.390625 
Q 20.953125 51.265625 25.265625 53.625 
Q 29.59375 56 35.59375 56 
Q 45.5625 56 51.78125 48.09375 
Q 58.015625 40.1875 58.015625 27.296875 
Q 58.015625 14.40625 51.78125 6.484375 
Q 45.5625 -1.421875 35.59375 -1.421875 
Q 29.59375 -1.421875 25.265625 0.953125 
Q 20.953125 3.328125 18.109375 8.203125 
z
M 48.6875 27.296875 
Q 48.6875 37.203125 44.609375 42.84375 
Q 40.53125 48.484375 33.40625 48.484375 
Q 26.265625 48.484375 22.1875 42.84375 
Q 18.109375 37.203125 18.109375 27.296875 
Q 18.109375 17.390625 22.1875 11.75 
Q 26.265625 6.109375 33.40625 6.109375 
Q 40.53125 6.109375 44.609375 11.75 
Q 48.6875 17.390625 48.6875 27.296875 
z
" id="DejaVuSans-112"/>
      <path d="M 30.609375 48.390625 
Q 23.390625 48.390625 19.1875 42.75 
Q 14.984375 37.109375 14.984375 27.296875 
Q 14.984375 17.484375 19.15625 11.84375 
Q 23.34375 6.203125 30.609375 6.203125 
Q 37.796875 6.203125 41.984375 11.859375 
Q 46.1875 17.53125 46.1875 27.296875 
Q 46.1875 37.015625 41.984375 42.703125 
Q 37.796875 48.390625 30.609375 48.390625 
z
M 30.609375 56 
Q 42.328125 56 49.015625 48.375 
Q 55.71875 40.765625 55.71875 27.296875 
Q 55.71875 13.875 49.015625 6.21875 
Q 42.328125 -1.421875 30.609375 -1.421875 
Q 18.84375 -1.421875 12.171875 6.21875 
Q 5.515625 13.875 5.515625 27.296875 
Q 5.515625 40.765625 12.171875 48.375 
Q 18.84375 56 30.609375 56 
z
" id="DejaVuSans-111"/>
      <path d="M 9.421875 54.6875 
L 18.40625 54.6875 
L 18.40625 0 
L 9.421875 0 
z
M 9.421875 75.984375 
L 18.40625 75.984375 
L 18.40625 64.59375 
L 9.421875 64.59375 
z
" id="DejaVuSans-105"/>
      <path d="M 18.3125 70.21875 
L 18.3125 54.6875 
L 36.8125 54.6875 
L 36.8125 47.703125 
L 18.3125 47.703125 
L 18.3125 18.015625 
Q 18.3125 11.328125 20.140625 9.421875 
Q 21.96875 7.515625 27.59375 7.515625 
L 36.8125 7.515625 
L 36.8125 0 
L 27.59375 0 
Q 17.1875 0 13.234375 3.875 
Q 9.28125 7.765625 9.28125 18.015625 
L 9.28125 47.703125 
L 2.6875 47.703125 
L 2.6875 54.6875 
L 9.28125 54.6875 
L 9.28125 70.21875 
z
" id="DejaVuSans-116"/>
      <path d="M 2.984375 54.6875 
L 12.5 54.6875 
L 29.59375 8.796875 
L 46.6875 54.6875 
L 56.203125 54.6875 
L 35.6875 0 
L 23.484375 0 
z
" id="DejaVuSans-118"/>
      <path d="M 41.109375 46.296875 
Q 39.59375 47.171875 37.8125 47.578125 
Q 36.03125 48 33.890625 48 
Q 26.265625 48 22.1875 43.046875 
Q 18.109375 38.09375 18.109375 28.8125 
L 18.109375 0 
L 9.078125 0 
L 9.078125 54.6875 
L 18.109375 54.6875 
L 18.109375 46.1875 
Q 20.953125 51.171875 25.484375 53.578125 
Q 30.03125 56 36.53125 56 
Q 37.453125 56 38.578125 55.875 
Q 39.703125 55.765625 41.0625 55.515625 
z
" id="DejaVuSans-114"/>
     </defs>
     <g transform="translate(304.67 495.895938)scale(0.14 -0.14)">
      <use xlink:href="#DejaVuSans-70"/>
      <use x="57.378906" xlink:href="#DejaVuSans-97"/>
      <use x="118.658203" xlink:href="#DejaVuSans-108"/>
      <use x="146.441406" xlink:href="#DejaVuSans-115"/>
      <use x="198.541016" xlink:href="#DejaVuSans-101"/>
      <use x="260.064453" xlink:href="#DejaVuSans-32"/>
      <use x="291.851562" xlink:href="#DejaVuSans-112"/>
      <use x="355.328125" xlink:href="#DejaVuSans-111"/>
      <use x="416.509766" xlink:href="#DejaVuSans-115"/>
      <use x="468.609375" xlink:href="#DejaVuSans-105"/>
      <use x="496.392578" xlink:href="#DejaVuSans-116"/>
      <use x="535.601562" xlink:href="#DejaVuSans-105"/>
      <use x="563.384766" xlink:href="#DejaVuSans-118"/>
      <use x="622.564453" xlink:href="#DejaVuSans-101"/>
      <use x="684.087891" xlink:href="#DejaVuSans-32"/>
      <use x="715.875" xlink:href="#DejaVuSans-114"/>
      <use x="756.988281" xlink:href="#DejaVuSans-97"/>
      <use x="818.267578" xlink:href="#DejaVuSans-116"/>
      <use x="857.476562" xlink:href="#DejaVuSans-101"/>
     </g>
    </g>
   </g>
   <g id="matplotlib.axis_2">
    <g id="ytick_1">
     <g id="line2d_7">
      <defs>
       <path d="M 0 0 
L -3.5 0 
" id="md954474ac8" style="stroke:#000000;stroke-width:0.8;"/>
      </defs>
      <g>
       <use style="stroke:#000000;stroke-width:0.8;" x="168.03" xlink:href="#md954474ac8" y="446.31"/>
      </g>
     </g>
     <g id="text_8">
      <!-- 0.0 -->
      <g transform="translate(145.126875 450.109219)scale(0.1 -0.1)">
       <use xlink:href="#DejaVuSans-48"/>
       <use x="63.623047" xlink:href="#DejaVuSans-46"/>
       <use x="95.410156" xlink:href="#DejaVuSans-48"/>
      </g>
     </g>
    </g>
    <g id="ytick_2">
     <g id="line2d_8">
      <g>
       <use style="stroke:#000000;stroke-width:0.8;" x="168.03" xlink:href="#md954474ac8" y="373.23"/>
      </g>
     </g>
     <g id="text_9">
      <!-- 0.2 -->
      <g transform="translate(145.126875 377.029219)scale(0.1 -0.1)">
       <use xlink:href="#DejaVuSans-48"/>
       <use x="63.623047" xlink:href="#DejaVuSans-46"/>
       <use x="95.410156" xlink:href="#DejaVuSans-50"/>
      </g>
     </g>
    </g>
    <g id="ytick_3">
     <g id="line2d_9">
      <g>
       <use style="stroke:#000000;stroke-width:0.8;" x="168.03" xlink:href="#md954474ac8" y="300.15"/>
      </g>
     </g>
     <g id="text_10">
      <!-- 0.4 -->
      <g transform="translate(145.126875 303.949219)scale(0.1 -0.1)">
       <use xlink:href="#DejaVuSans-48"/>
       <use x="63.623047" xlink:href="#DejaVuSans-46"/>
       <use x="95.410156" xlink:href="#DejaVuSans-52"/>
      </g>
     </g>
    </g>
    <g id="ytick_4">
     <g id="line2d_10">
      <g>
       <use style="stroke:#000000;stroke-width:0.8;" x="168.03" xlink:href="#md954474ac8" y="227.07"/>
      </g>
     </g>
     <g id="text_11">
      <!-- 0.6 -->
      <g transform="translate(145.126875 230.869219)scale(0.1 -0.1)">
       <use xlink:href="#DejaVuSans-48"/>
       <use x="63.623047" xlink:href="#DejaVuSans-46"/>
       <use x="95.410156" xlink:href="#DejaVuSans-54"/>
      </g>
     </g>
    </g>
    <g id="ytick_5">
     <g id="line2d_11">
      <g>
       <use style="stroke:#000000;stroke-width:0.8;" x="168.03" xlink:href="#md954474ac8" y="153.99"/>
      </g>
     </g>
     <g id="text_12">
      <!-- 0.8 -->
      <g transform="translate(145.126875 157.789219)scale(0.1 -0.1)">
       <use xlink:href="#DejaVuSans-48"/>
       <use x="63.623047" xlink:href="#DejaVuSans-46"/>
       <use x="95.410156" xlink:href="#DejaVuSans-56"/>
      </g>
     </g>
    </g>
    <g id="ytick_6">
     <g id="line2d_12">
      <g>
       <use style="stroke:#000000;stroke-width:0.8;" x="168.03" xlink:href="#md954474ac8" y="80.91"/>
      </g>
     </g>
     <g id="text_13">
      <!-- 1.0 -->
      <g transform="translate(145.126875 84.709219)scale(0.1 -0.1)">
       <use xlink:href="#DejaVuSans-49"/>
       <use x="63.623047" xlink:href="#DejaVuSans-46"/>
       <use x="95.410156" xlink:href="#DejaVuSans-48"/>
      </g>
     </g>
    </g>
    <g id="text_14">
     <!-- True positive rate -->
     <defs>
      <path d="M -0.296875 72.90625 
L 61.375 72.90625 
L 61.375 64.59375 
L 35.5 64.59375 
L 35.5 0 
L 25.59375 0 
L 25.59375 64.59375 
L -0.296875 64.59375 
z
" id="DejaVuSans-84"/>
      <path d="M 8.5 21.578125 
L 8.5 54.6875 
L 17.484375 54.6875 
L 17.484375 21.921875 
Q 17.484375 14.15625 20.5 10.265625 
Q 23.53125 6.390625 29.59375 6.390625 
Q 36.859375 6.390625 41.078125 11.03125 
Q 45.3125 15.671875 45.3125 23.6875 
L 45.3125 54.6875 
L 54.296875 54.6875 
L 54.296875 0 
L 45.3125 0 
L 45.3125 8.40625 
Q 42.046875 3.421875 37.71875 1 
Q 33.40625 -1.421875 27.6875 -1.421875 
Q 18.265625 -1.421875 13.375 4.4375 
Q 8.5 10.296875 8.5 21.578125 
z
M 31.109375 56 
z
" id="DejaVuSans-117"/>
     </defs>
     <g transform="translate(138.215313 325.616875)rotate(-90)scale(0.14 -0.14)">
      <use xlink:href="#DejaVuSans-84"/>
      <use x="60.865234" xlink:href="#DejaVuSans-114"/>
      <use x="101.978516" xlink:href="#DejaVuSans-117"/>
      <use x="165.357422" xlink:href="#DejaVuSans-101"/>
      <use x="226.880859" xlink:href="#DejaVuSans-32"/>
      <use x="258.667969" xlink:href="#DejaVuSans-112"/>
      <use x="322.144531" xlink:href="#DejaVuSans-111"/>
      <use x="383.326172" xlink:href="#DejaVuSans-115"/>
      <use x="435.425781" xlink:href="#DejaVuSans-105"/>
      <use x="463.208984" xlink:href="#DejaVuSans-116"/>
      <use x="502.417969" xlink:href="#DejaVuSans-105"/>
      <use x="530.201172" xlink:href="#DejaVuSans-118"/>
      <use x="589.380859" xlink:href="#DejaVuSans-101"/>
      <use x="650.904297" xlink:href="#DejaVuSans-32"/>
      <use x="682.691406" xlink:href="#DejaVuSans-114"/>
      <use x="723.804688" xlink:href="#DejaVuSans-97"/>
      <use x="785.083984" xlink:href="#DejaVuSans-116"/>
      <use x="824.292969" xlink:href="#DejaVuSans-101"/>
     </g>
    </g>
   </g>
   <g id="line2d_13">
    <path clip-path="url(#p418a1bd56b)" d="M 186.3 446.31 
L 186.3 443.363226 
L 186.3 437.469677 
L 189.2 437.469677 
L 189.2 422.735806 
L 192.1 422.735806 
L 192.1 408.001935 
L 195 408.001935 
L 195 405.055161 
L 197.9 405.055161 
L 197.9 384.427742 
L 200.8 384.427742 
L 200.8 328.439032 
L 203.7 328.439032 
L 203.7 322.545484 
L 209.5 322.545484 
L 209.5 296.024516 
L 212.4 296.024516 
L 212.4 287.184194 
L 215.3 287.184194 
L 215.3 284.237419 
L 218.2 284.237419 
L 218.2 281.290645 
L 221.1 281.290645 
L 221.1 278.343871 
L 224 278.343871 
L 224 275.397097 
L 226.9 275.397097 
L 226.9 269.503548 
L 232.7 269.503548 
L 232.7 260.663226 
L 235.6 260.663226 
L 235.6 257.716452 
L 238.5 257.716452 
L 238.5 251.822903 
L 244.3 251.822903 
L 244.3 248.876129 
L 253 248.876129 
L 253 240.035806 
L 255.9 240.035806 
L 255.9 234.142258 
L 258.8 234.142258 
L 258.8 231.195484 
L 261.7 231.195484 
L 261.7 213.514839 
L 270.4 213.514839 
L 270.4 210.568065 
L 284.9 210.568065 
L 284.9 207.62129 
L 290.7 207.62129 
L 290.7 204.674516 
L 293.6 204.674516 
L 293.6 201.727742 
L 296.5 201.727742 
L 296.5 198.780968 
L 313.9 198.780968 
L 313.9 195.834194 
L 325.5 195.834194 
L 325.5 192.887419 
L 334.2 192.887419 
L 334.2 189.940645 
L 337.1 189.940645 
L 337.1 181.100323 
L 340 181.100323 
L 340 178.153548 
L 342.9 178.153548 
L 342.9 175.206774 
L 345.8 175.206774 
L 345.8 172.26 
L 354.5 172.26 
L 354.5 166.366452 
L 357.4 166.366452 
L 357.4 163.419677 
L 363.2 163.419677 
L 363.2 160.472903 
L 371.9 160.472903 
L 371.9 151.632581 
L 377.7 151.632581 
L 377.7 142.792258 
L 392.2 142.792258 
L 392.2 136.89871 
L 403.8 136.89871 
L 403.8 131.005161 
L 409.6 131.005161 
L 409.6 128.058387 
L 412.5 128.058387 
L 412.5 122.164839 
L 415.4 122.164839 
L 415.4 119.218065 
L 418.3 119.218065 
L 418.3 116.27129 
L 438.6 116.27129 
L 438.6 110.377742 
L 450.2 110.377742 
L 450.2 104.484194 
L 456 104.484194 
L 456 101.537419 
L 464.7 101.537419 
L 464.7 98.590645 
L 470.5 98.590645 
L 470.5 95.643871 
L 537.2 95.643871 
L 537.2 92.697097 
L 543 92.697097 
L 543 86.803548 
L 545.9 86.803548 
L 545.9 80.91 
L 551.7 80.91 
" style="fill:none;stroke:#0173b2;stroke-linecap:square;stroke-width:2;"/>
   </g>
   <g id="line2d_14">
    <path clip-path="url(#p418a1bd56b)" d="M 186.3 446.31 
L 199.833333 446.31 
L 213.366667 446.31 
L 213.366667 361.986923 
L 240.433333 361.986923 
L 240.433333 347.933077 
L 253.966667 347.933077 
L 253.966667 333.879231 
L 267.5 333.879231 
L 267.5 291.717692 
L 281.033333 291.717692 
L 281.033333 263.61 
L 294.566667 263.61 
L 294.566667 193.340769 
L 308.1 193.340769 
L 308.1 179.286923 
L 335.166667 179.286923 
L 335.166667 165.233077 
L 375.766667 165.233077 
L 375.766667 151.179231 
L 402.833333 151.179231 
L 402.833333 94.963846 
L 511.1 94.963846 
L 511.1 80.91 
L 551.7 80.91 
" style="fill:none;stroke:#de8f05;stroke-linecap:square;stroke-width:2;"/>
   </g>
   <g id="line2d_15">
    <path clip-path="url(#p418a1bd56b)" d="M 186.3 446.31 
L 190.925316 446.31 
L 190.925316 430.870563 
L 200.175949 430.870563 
L 200.175949 420.577606 
L 204.801266 420.577606 
L 204.801266 405.138169 
L 209.426582 405.138169 
L 209.426582 384.552254 
L 214.051899 384.552254 
L 214.051899 343.380423 
L 218.677215 343.380423 
L 218.677215 333.087465 
L 223.302532 333.087465 
L 223.302532 276.476197 
L 232.553165 276.476197 
L 232.553165 271.329718 
L 237.178481 271.329718 
L 237.178481 250.743803 
L 241.803797 250.743803 
L 241.803797 245.597324 
L 246.429114 245.597324 
L 246.429114 240.450845 
L 297.307595 240.450845 
L 297.307595 230.157887 
L 320.434177 230.157887 
L 320.434177 188.986056 
L 325.059494 188.986056 
L 325.059494 183.839577 
L 338.935443 183.839577 
L 338.935443 173.54662 
L 371.312658 173.54662 
L 371.312658 168.400141 
L 399.064557 168.400141 
L 399.064557 158.107183 
L 403.689873 158.107183 
L 403.689873 147.814225 
L 408.31519 147.814225 
L 408.31519 142.667746 
L 412.940506 142.667746 
L 412.940506 137.521268 
L 426.816456 137.521268 
L 426.816456 111.788873 
L 436.067089 111.788873 
L 436.067089 101.495915 
L 445.317722 101.495915 
L 445.317722 91.202958 
L 477.694937 91.202958 
L 477.694937 86.056479 
L 528.573418 86.056479 
L 528.573418 80.91 
L 551.7 80.91 
" style="fill:none;stroke:#029e73;stroke-linecap:square;stroke-width:2;"/>
   </g>
   <g id="line2d_16">
    <path clip-path="url(#p418a1bd56b)" d="M 186.3 446.31 
L 186.3 405.71 
L 186.3 365.11 
L 219.518182 365.11 
L 219.518182 162.11 
L 285.954545 162.11 
L 285.954545 121.51 
L 551.7 121.51 
L 551.7 80.91 
" style="fill:none;stroke:#d55e00;stroke-linecap:square;stroke-width:2;"/>
   </g>
   <g id="line2d_17">
    <path clip-path="url(#p418a1bd56b)" d="M 186.3 446.31 
L 186.3 445.764627 
L 186.822 445.764627 
L 186.822 445.219254 
L 187.344 445.219254 
L 187.344 441.947015 
L 187.866 441.947015 
L 187.866 441.401642 
L 188.388 441.401642 
L 188.388 439.220149 
L 188.91 439.220149 
L 188.91 438.674776 
L 189.432 438.674776 
L 189.432 435.94791 
L 189.954 435.94791 
L 189.954 435.402537 
L 190.476 435.402537 
L 190.476 428.85806 
L 190.998 428.85806 
L 190.998 428.312687 
L 191.52 428.312687 
L 191.52 427.767313 
L 192.042 427.767313 
L 192.042 426.131194 
L 193.086 426.131194 
L 193.086 419.041343 
L 194.13 419.041343 
L 194.13 417.950597 
L 194.652 417.950597 
L 194.652 413.042239 
L 195.696 413.042239 
L 195.696 401.589403 
L 196.218 401.589403 
L 196.218 397.771791 
L 197.784 397.771791 
L 197.784 396.681045 
L 198.306 396.681045 
L 198.306 396.135672 
L 199.35 396.135672 
L 199.35 391.772687 
L 199.872 391.772687 
L 199.872 387.955075 
L 200.916 387.955075 
L 200.916 383.59209 
L 202.482 383.59209 
L 202.482 383.046716 
L 203.004 383.046716 
L 203.004 375.956866 
L 203.526 375.956866 
L 203.526 375.411493 
L 204.048 375.411493 
L 204.048 373.775373 
L 204.57 373.775373 
L 204.57 370.503134 
L 205.614 370.503134 
L 205.614 368.867015 
L 206.136 368.867015 
L 206.136 368.321642 
L 207.18 368.321642 
L 207.18 366.140149 
L 207.702 366.140149 
L 207.702 365.049403 
L 208.224 365.049403 
L 208.224 363.413284 
L 209.268 363.413284 
L 209.268 361.777164 
L 209.79 361.777164 
L 209.79 360.686418 
L 210.312 360.686418 
L 210.312 359.595672 
L 210.834 359.595672 
L 210.834 355.232687 
L 211.878 355.232687 
L 211.878 353.596567 
L 213.444 353.596567 
L 213.444 352.505821 
L 214.488 352.505821 
L 214.488 351.960448 
L 215.01 351.960448 
L 215.01 351.415075 
L 215.532 351.415075 
L 215.532 341.598358 
L 216.054 341.598358 
L 216.054 339.962239 
L 216.576 339.962239 
L 216.576 338.871493 
L 217.098 338.871493 
L 217.098 337.780746 
L 219.186 337.780746 
L 219.186 336.144627 
L 219.708 336.144627 
L 219.708 335.599254 
L 220.23 335.599254 
L 220.23 333.963134 
L 220.752 333.963134 
L 220.752 332.327015 
L 221.274 332.327015 
L 221.274 330.145522 
L 221.796 330.145522 
L 221.796 326.32791 
L 222.84 326.32791 
L 222.84 325.782537 
L 223.362 325.782537 
L 223.362 325.237164 
L 224.406 325.237164 
L 224.406 324.691791 
L 224.928 324.691791 
L 224.928 323.055672 
L 225.45 323.055672 
L 225.45 321.964925 
L 225.972 321.964925 
L 225.972 318.147313 
L 226.494 318.147313 
L 226.494 317.60194 
L 227.016 317.60194 
L 227.016 314.329701 
L 227.538 314.329701 
L 227.538 313.238955 
L 228.06 313.238955 
L 228.06 312.693582 
L 228.582 312.693582 
L 228.582 311.057463 
L 229.104 311.057463 
L 229.104 310.51209 
L 229.626 310.51209 
L 229.626 309.966716 
L 230.148 309.966716 
L 230.148 308.330597 
L 230.67 308.330597 
L 230.67 307.239851 
L 231.192 307.239851 
L 231.192 306.694478 
L 231.714 306.694478 
L 231.714 301.786119 
L 234.324 301.786119 
L 234.324 301.240746 
L 234.846 301.240746 
L 234.846 299.604627 
L 235.368 299.604627 
L 235.368 297.968507 
L 236.412 297.968507 
L 236.412 296.332388 
L 236.934 296.332388 
L 236.934 295.241642 
L 237.978 295.241642 
L 237.978 294.150896 
L 239.022 294.150896 
L 239.022 290.333284 
L 239.544 290.333284 
L 239.544 289.242537 
L 240.066 289.242537 
L 240.066 285.970299 
L 240.588 285.970299 
L 240.588 284.879552 
L 241.11 284.879552 
L 241.11 283.788806 
L 241.632 283.788806 
L 241.632 282.152687 
L 242.154 282.152687 
L 242.154 279.971194 
L 242.676 279.971194 
L 242.676 277.789701 
L 243.72 277.789701 
L 243.72 276.153582 
L 244.242 276.153582 
L 244.242 274.517463 
L 244.764 274.517463 
L 244.764 273.97209 
L 245.286 273.97209 
L 245.286 271.245224 
L 245.808 271.245224 
L 245.808 270.699851 
L 246.33 270.699851 
L 246.33 269.609104 
L 246.852 269.609104 
L 246.852 268.518358 
L 247.374 268.518358 
L 247.374 267.427612 
L 248.418 267.427612 
L 248.418 265.791493 
L 249.462 265.791493 
L 249.462 262.519254 
L 249.984 262.519254 
L 249.984 260.883134 
L 250.506 260.883134 
L 250.506 259.792388 
L 251.028 259.792388 
L 251.028 259.247015 
L 252.594 259.247015 
L 252.594 257.610896 
L 253.116 257.610896 
L 253.116 257.065522 
L 253.638 257.065522 
L 253.638 255.429403 
L 255.204 255.429403 
L 255.204 254.338657 
L 255.726 254.338657 
L 255.726 253.793284 
L 256.248 253.793284 
L 256.248 251.611791 
L 256.77 251.611791 
L 256.77 250.521045 
L 257.292 250.521045 
L 257.292 249.430299 
L 258.336 249.430299 
L 258.336 248.884925 
L 259.902 248.884925 
L 259.902 246.703433 
L 260.424 246.703433 
L 260.424 245.067313 
L 260.946 245.067313 
L 260.946 243.976567 
L 261.468 243.976567 
L 261.468 243.431194 
L 263.034 243.431194 
L 263.034 242.885821 
L 263.556 242.885821 
L 263.556 242.340448 
L 264.078 242.340448 
L 264.078 241.795075 
L 264.6 241.795075 
L 264.6 241.249701 
L 266.166 241.249701 
L 266.166 240.704328 
L 266.688 240.704328 
L 266.688 239.068209 
L 267.21 239.068209 
L 267.21 238.522836 
L 267.732 238.522836 
L 267.732 237.977463 
L 269.82 237.977463 
L 269.82 237.43209 
L 270.342 237.43209 
L 270.342 236.886716 
L 270.864 236.886716 
L 270.864 236.341343 
L 271.908 236.341343 
L 271.908 231.978358 
L 272.43 231.978358 
L 272.43 228.706119 
L 273.474 228.706119 
L 273.474 227.07 
L 275.562 227.07 
L 275.562 225.979254 
L 277.65 225.979254 
L 277.65 225.433881 
L 279.216 225.433881 
L 279.216 223.252388 
L 281.304 223.252388 
L 281.304 222.161642 
L 281.826 222.161642 
L 281.826 219.434776 
L 282.348 219.434776 
L 282.348 217.798657 
L 283.392 217.798657 
L 283.392 216.70791 
L 286.002 216.70791 
L 286.002 211.799552 
L 286.524 211.799552 
L 286.524 210.708806 
L 287.046 210.708806 
L 287.046 210.163433 
L 288.09 210.163433 
L 288.09 209.072687 
L 289.656 209.072687 
L 289.656 207.98194 
L 290.7 207.98194 
L 290.7 206.891194 
L 291.744 206.891194 
L 291.744 206.345821 
L 292.788 206.345821 
L 292.788 205.800448 
L 293.31 205.800448 
L 293.31 205.255075 
L 293.832 205.255075 
L 293.832 204.164328 
L 296.964 204.164328 
L 296.964 203.618955 
L 297.486 203.618955 
L 297.486 202.528209 
L 298.008 202.528209 
L 298.008 201.982836 
L 299.574 201.982836 
L 299.574 201.437463 
L 301.662 201.437463 
L 301.662 200.89209 
L 302.184 200.89209 
L 302.184 198.710597 
L 302.706 198.710597 
L 302.706 197.074478 
L 303.228 197.074478 
L 303.228 193.256866 
L 305.316 193.256866 
L 305.316 192.711493 
L 306.36 192.711493 
L 306.36 192.166119 
L 307.404 192.166119 
L 307.404 191.620746 
L 307.926 191.620746 
L 307.926 191.075373 
L 308.448 191.075373 
L 308.448 190.53 
L 308.97 190.53 
L 308.97 187.803134 
L 309.492 187.803134 
L 309.492 185.621642 
L 311.58 185.621642 
L 311.58 185.076269 
L 312.624 185.076269 
L 312.624 184.530896 
L 315.756 184.530896 
L 315.756 183.440149 
L 316.8 183.440149 
L 316.8 182.349403 
L 317.322 182.349403 
L 317.322 179.622537 
L 317.844 179.622537 
L 317.844 179.077164 
L 318.888 179.077164 
L 318.888 176.895672 
L 319.932 176.895672 
L 319.932 176.350299 
L 320.454 176.350299 
L 320.454 175.804925 
L 323.064 175.804925 
L 323.064 175.259552 
L 324.108 175.259552 
L 324.108 174.168806 
L 324.63 174.168806 
L 324.63 173.623433 
L 325.674 173.623433 
L 325.674 173.07806 
L 326.196 173.07806 
L 326.196 171.987313 
L 328.284 171.987313 
L 328.284 169.805821 
L 328.806 169.805821 
L 328.806 169.260448 
L 330.894 169.260448 
L 330.894 168.715075 
L 334.026 168.715075 
L 334.026 167.624328 
L 335.592 167.624328 
L 335.592 166.533582 
L 337.68 166.533582 
L 337.68 165.442836 
L 338.202 165.442836 
L 338.202 164.897463 
L 338.724 164.897463 
L 338.724 164.35209 
L 340.29 164.35209 
L 340.29 163.261343 
L 343.944 163.261343 
L 343.944 162.71597 
L 344.988 162.71597 
L 344.988 162.170597 
L 346.032 162.170597 
L 346.032 161.625224 
L 347.076 161.625224 
L 347.076 161.079851 
L 347.598 161.079851 
L 347.598 160.534478 
L 348.642 160.534478 
L 348.642 159.989104 
L 355.95 159.989104 
L 355.95 159.443731 
L 357.516 159.443731 
L 357.516 158.898358 
L 360.126 158.898358 
L 360.126 157.807612 
L 361.17 157.807612 
L 361.17 157.262239 
L 363.78 157.262239 
L 363.78 155.626119 
L 364.302 155.626119 
L 364.302 155.080746 
L 366.39 155.080746 
L 366.39 154.535373 
L 367.434 154.535373 
L 367.434 153.99 
L 367.956 153.99 
L 367.956 152.899254 
L 369 152.899254 
L 369 152.353881 
L 371.088 152.353881 
L 371.088 151.808507 
L 371.61 151.808507 
L 371.61 151.263134 
L 372.132 151.263134 
L 372.132 149.081642 
L 373.176 149.081642 
L 373.176 148.536269 
L 374.742 148.536269 
L 374.742 147.990896 
L 375.786 147.990896 
L 375.786 146.900149 
L 377.352 146.900149 
L 377.352 146.354776 
L 377.874 146.354776 
L 377.874 145.809403 
L 381.528 145.809403 
L 381.528 145.26403 
L 382.572 145.26403 
L 382.572 144.173284 
L 384.138 144.173284 
L 384.138 143.082537 
L 385.182 143.082537 
L 385.182 142.537164 
L 385.704 142.537164 
L 385.704 141.991791 
L 386.226 141.991791 
L 386.226 140.901045 
L 386.748 140.901045 
L 386.748 139.810299 
L 387.27 139.810299 
L 387.27 139.264925 
L 389.358 139.264925 
L 389.358 138.719552 
L 389.88 138.719552 
L 389.88 138.174179 
L 390.402 138.174179 
L 390.402 137.628806 
L 390.924 137.628806 
L 390.924 137.083433 
L 391.446 137.083433 
L 391.446 136.53806 
L 392.49 136.53806 
L 392.49 135.992687 
L 395.622 135.992687 
L 395.622 135.447313 
L 396.144 135.447313 
L 396.144 134.90194 
L 400.842 134.90194 
L 400.842 134.356567 
L 402.408 134.356567 
L 402.408 132.175075 
L 409.716 132.175075 
L 409.716 131.084328 
L 410.238 131.084328 
L 410.238 129.993582 
L 412.326 129.993582 
L 412.326 128.902836 
L 412.848 128.902836 
L 412.848 128.357463 
L 413.37 128.357463 
L 413.37 127.81209 
L 414.414 127.81209 
L 414.414 125.085224 
L 414.936 125.085224 
L 414.936 124.539851 
L 416.502 124.539851 
L 416.502 123.994478 
L 422.244 123.994478 
L 422.244 122.358358 
L 422.766 122.358358 
L 422.766 121.812985 
L 424.332 121.812985 
L 424.332 121.267612 
L 427.986 121.267612 
L 427.986 120.722239 
L 428.508 120.722239 
L 428.508 119.631493 
L 431.64 119.631493 
L 431.64 119.086119 
L 432.162 119.086119 
L 432.162 118.540746 
L 432.684 118.540746 
L 432.684 117.995373 
L 433.206 117.995373 
L 433.206 117.45 
L 437.382 117.45 
L 437.382 116.904627 
L 439.47 116.904627 
L 439.47 116.359254 
L 443.124 116.359254 
L 443.124 115.813881 
L 445.212 115.813881 
L 445.212 115.268507 
L 445.734 115.268507 
L 445.734 114.723134 
L 446.256 114.723134 
L 446.256 113.632388 
L 447.3 113.632388 
L 447.3 113.087015 
L 448.866 113.087015 
L 448.866 112.541642 
L 450.954 112.541642 
L 450.954 111.996269 
L 453.042 111.996269 
L 453.042 111.450896 
L 456.696 111.450896 
L 456.696 109.814776 
L 457.74 109.814776 
L 457.74 109.269403 
L 458.784 109.269403 
L 458.784 108.178657 
L 459.306 108.178657 
L 459.306 107.633284 
L 460.872 107.633284 
L 460.872 107.08791 
L 461.394 107.08791 
L 461.394 106.542537 
L 461.916 106.542537 
L 461.916 105.997164 
L 464.004 105.997164 
L 464.004 104.361045 
L 470.268 104.361045 
L 470.268 102.724925 
L 471.312 102.724925 
L 471.312 102.179552 
L 476.01 102.179552 
L 476.01 101.088806 
L 480.186 101.088806 
L 480.186 100.543433 
L 483.84 100.543433 
L 483.84 99.99806 
L 484.362 99.99806 
L 484.362 98.907313 
L 486.972 98.907313 
L 486.972 97.816567 
L 489.06 97.816567 
L 489.06 97.271194 
L 489.582 97.271194 
L 489.582 96.725821 
L 491.67 96.725821 
L 491.67 96.180448 
L 492.192 96.180448 
L 492.192 95.635075 
L 492.714 95.635075 
L 492.714 95.089701 
L 494.28 95.089701 
L 494.28 93.998955 
L 495.846 93.998955 
L 495.846 93.453582 
L 497.412 93.453582 
L 497.412 92.362836 
L 499.5 92.362836 
L 499.5 91.817463 
L 501.588 91.817463 
L 501.588 90.726716 
L 505.242 90.726716 
L 505.242 90.181343 
L 507.33 90.181343 
L 507.33 89.63597 
L 507.852 89.63597 
L 507.852 89.090597 
L 508.896 89.090597 
L 508.896 88.545224 
L 509.418 88.545224 
L 509.418 87.999851 
L 514.116 87.999851 
L 514.116 87.454478 
L 515.16 87.454478 
L 515.16 86.909104 
L 517.248 86.909104 
L 517.248 85.818358 
L 519.858 85.818358 
L 519.858 85.272985 
L 524.556 85.272985 
L 524.556 84.727612 
L 527.688 84.727612 
L 527.688 83.636866 
L 531.864 83.636866 
L 531.864 82.546119 
L 541.782 82.546119 
L 541.782 82.000746 
L 548.046 82.000746 
L 548.046 81.455373 
L 549.612 81.455373 
L 549.612 80.91 
L 551.7 80.91 
L 551.7 80.91 
" style="fill:none;stroke:#cc78bc;stroke-linecap:square;stroke-width:2;"/>
   </g>
   <g id="line2d_18">
    <path clip-path="url(#p418a1bd56b)" d="M 186.3 446.31 
L 186.3 432.776667 
L 186.3 324.51 
L 202.186957 324.51 
L 202.186957 297.443333 
L 233.96087 297.443333 
L 233.96087 270.376667 
L 249.847826 270.376667 
L 249.847826 243.31 
L 265.734783 243.31 
L 265.734783 202.71 
L 281.621739 202.71 
L 281.621739 175.643333 
L 329.282609 175.643333 
L 329.282609 148.576667 
L 345.169565 148.576667 
L 345.169565 135.043333 
L 408.717391 135.043333 
L 408.717391 121.51 
L 424.604348 121.51 
L 424.604348 107.976667 
L 519.926087 107.976667 
L 519.926087 94.443333 
L 535.813043 94.443333 
L 535.813043 80.91 
L 551.7 80.91 
" style="fill:none;stroke:#ca9161;stroke-linecap:square;stroke-width:2;"/>
   </g>
   <g id="line2d_19">
    <path clip-path="url(#p418a1bd56b)" d="M 186.3 446.31 
L 186.3 425.10375 
L 188.264516 425.10375 
L 188.264516 415.31625 
L 190.229032 415.31625 
L 190.229032 403.8975 
L 194.158065 403.8975 
L 194.158065 400.635 
L 196.122581 400.635 
L 196.122581 397.3725 
L 198.087097 397.3725 
L 198.087097 385.95375 
L 200.051613 385.95375 
L 200.051613 382.69125 
L 202.016129 382.69125 
L 202.016129 381.06 
L 203.980645 381.06 
L 203.980645 359.85375 
L 205.945161 359.85375 
L 205.945161 354.96 
L 207.909677 354.96 
L 207.909677 350.06625 
L 211.83871 350.06625 
L 211.83871 346.80375 
L 213.803226 346.80375 
L 213.803226 345.1725 
L 215.767742 345.1725 
L 215.767742 340.27875 
L 217.732258 340.27875 
L 217.732258 337.01625 
L 219.696774 337.01625 
L 219.696774 335.385 
L 221.66129 335.385 
L 221.66129 333.75375 
L 227.554839 333.75375 
L 227.554839 323.96625 
L 231.483871 323.96625 
L 231.483871 319.0725 
L 235.412903 319.0725 
L 235.412903 315.81 
L 239.341935 315.81 
L 239.341935 314.17875 
L 243.270968 314.17875 
L 243.270968 306.0225 
L 247.2 306.0225 
L 247.2 296.235 
L 251.129032 296.235 
L 251.129032 292.9725 
L 253.093548 292.9725 
L 253.093548 291.34125 
L 257.022581 291.34125 
L 257.022581 289.71 
L 258.987097 289.71 
L 258.987097 288.07875 
L 260.951613 288.07875 
L 260.951613 286.4475 
L 264.880645 286.4475 
L 264.880645 278.29125 
L 274.703226 278.29125 
L 274.703226 276.66 
L 276.667742 276.66 
L 276.667742 275.02875 
L 278.632258 275.02875 
L 278.632258 273.3975 
L 280.596774 273.3975 
L 280.596774 268.50375 
L 282.56129 268.50375 
L 282.56129 265.24125 
L 284.525806 265.24125 
L 284.525806 261.97875 
L 288.454839 261.97875 
L 288.454839 257.085 
L 290.419355 257.085 
L 290.419355 255.45375 
L 292.383871 255.45375 
L 292.383871 252.19125 
L 300.241935 252.19125 
L 300.241935 245.66625 
L 302.206452 245.66625 
L 302.206452 239.14125 
L 310.064516 239.14125 
L 310.064516 237.51 
L 312.029032 237.51 
L 312.029032 235.87875 
L 313.993548 235.87875 
L 313.993548 229.35375 
L 315.958065 229.35375 
L 315.958065 226.09125 
L 317.922581 226.09125 
L 317.922581 224.46 
L 319.887097 224.46 
L 319.887097 219.56625 
L 323.816129 219.56625 
L 323.816129 211.41 
L 329.709677 211.41 
L 329.709677 209.77875 
L 331.674194 209.77875 
L 331.674194 208.1475 
L 333.63871 208.1475 
L 333.63871 198.36 
L 335.603226 198.36 
L 335.603226 195.0975 
L 339.532258 195.0975 
L 339.532258 193.46625 
L 341.496774 193.46625 
L 341.496774 190.20375 
L 343.46129 190.20375 
L 343.46129 182.0475 
L 347.390323 182.0475 
L 347.390323 180.41625 
L 351.319355 180.41625 
L 351.319355 178.785 
L 353.283871 178.785 
L 353.283871 177.15375 
L 355.248387 177.15375 
L 355.248387 175.5225 
L 359.177419 175.5225 
L 359.177419 172.26 
L 367.035484 172.26 
L 367.035484 170.62875 
L 369 170.62875 
L 369 168.9975 
L 370.964516 168.9975 
L 370.964516 167.36625 
L 374.893548 167.36625 
L 374.893548 160.84125 
L 376.858065 160.84125 
L 376.858065 159.21 
L 378.822581 159.21 
L 378.822581 157.57875 
L 382.751613 157.57875 
L 382.751613 155.9475 
L 388.645161 155.9475 
L 388.645161 152.685 
L 390.609677 152.685 
L 390.609677 142.8975 
L 392.574194 142.8975 
L 392.574194 141.26625 
L 394.53871 141.26625 
L 394.53871 138.00375 
L 398.467742 138.00375 
L 398.467742 136.3725 
L 400.432258 136.3725 
L 400.432258 131.47875 
L 402.396774 131.47875 
L 402.396774 129.8475 
L 404.36129 129.8475 
L 404.36129 128.21625 
L 406.325806 128.21625 
L 406.325806 126.585 
L 414.183871 126.585 
L 414.183871 124.95375 
L 420.077419 124.95375 
L 420.077419 123.3225 
L 422.041935 123.3225 
L 422.041935 121.69125 
L 427.935484 121.69125 
L 427.935484 118.42875 
L 429.9 118.42875 
L 429.9 116.7975 
L 435.793548 116.7975 
L 435.793548 115.16625 
L 437.758065 115.16625 
L 437.758065 113.535 
L 451.509677 113.535 
L 451.509677 110.2725 
L 455.43871 110.2725 
L 455.43871 108.64125 
L 457.403226 108.64125 
L 457.403226 107.01 
L 461.332258 107.01 
L 461.332258 103.7475 
L 463.296774 103.7475 
L 463.296774 100.485 
L 473.119355 100.485 
L 473.119355 98.85375 
L 479.012903 98.85375 
L 479.012903 97.2225 
L 482.941935 97.2225 
L 482.941935 95.59125 
L 488.835484 95.59125 
L 488.835484 92.32875 
L 498.658065 92.32875 
L 498.658065 90.6975 
L 504.551613 90.6975 
L 504.551613 85.80375 
L 510.445161 85.80375 
L 510.445161 84.1725 
L 516.33871 84.1725 
L 516.33871 82.54125 
L 520.267742 82.54125 
L 520.267742 80.91 
L 551.7 80.91 
L 551.7 80.91 
" style="fill:none;stroke:#fbafe4;stroke-linecap:square;stroke-width:2;"/>
   </g>
   <g id="line2d_20">
    <path clip-path="url(#p418a1bd56b)" d="M 186.3 446.31 
L 193.19434 446.31 
L 206.983019 446.31 
L 206.983019 383.067692 
L 220.771698 383.067692 
L 220.771698 298.744615 
L 227.666038 298.744615 
L 227.666038 228.475385 
L 241.454717 228.475385 
L 241.454717 214.421538 
L 248.349057 214.421538 
L 248.349057 200.367692 
L 255.243396 200.367692 
L 255.243396 186.313846 
L 275.926415 186.313846 
L 275.926415 179.286923 
L 289.715094 179.286923 
L 289.715094 172.26 
L 303.503774 172.26 
L 303.503774 165.233077 
L 337.975472 165.233077 
L 337.975472 158.206154 
L 365.55283 158.206154 
L 365.55283 130.098462 
L 372.44717 130.098462 
L 372.44717 116.044615 
L 448.284906 116.044615 
L 448.284906 109.017692 
L 468.967925 109.017692 
L 468.967925 101.990769 
L 503.439623 101.990769 
L 503.439623 94.963846 
L 510.333962 94.963846 
L 510.333962 87.936923 
L 537.911321 87.936923 
L 537.911321 80.91 
L 551.7 80.91 
" style="fill:none;stroke:#949494;stroke-linecap:square;stroke-width:2;"/>
   </g>
   <g id="line2d_21">
    <path clip-path="url(#p418a1bd56b)" d="M 186.3 446.31 
L 187.397297 446.31 
L 187.397297 440.600625 
L 187.945946 440.600625 
L 187.945946 439.043523 
L 188.494595 439.043523 
L 188.494595 438.524489 
L 189.043243 438.524489 
L 189.043243 436.448352 
L 190.140541 436.448352 
L 190.140541 432.815114 
L 190.689189 432.815114 
L 190.689189 429.700909 
L 191.237838 429.700909 
L 191.237838 424.510568 
L 191.786486 424.510568 
L 191.786486 419.320227 
L 193.432432 419.320227 
L 193.432432 417.244091 
L 193.981081 417.244091 
L 193.981081 416.206023 
L 194.52973 416.206023 
L 194.52973 415.686989 
L 195.078378 415.686989 
L 195.078378 414.129886 
L 195.627027 414.129886 
L 195.627027 412.572784 
L 197.272973 412.572784 
L 197.272973 408.939545 
L 197.821622 408.939545 
L 197.821622 406.863409 
L 198.37027 406.863409 
L 198.37027 404.787273 
L 198.918919 404.787273 
L 198.918919 401.673068 
L 199.467568 401.673068 
L 199.467568 399.596932 
L 200.016216 399.596932 
L 200.016216 399.077898 
L 200.564865 399.077898 
L 200.564865 397.520795 
L 201.113514 397.520795 
L 201.113514 395.963693 
L 201.662162 395.963693 
L 201.662162 391.292386 
L 202.759459 391.292386 
L 202.759459 390.254318 
L 203.308108 390.254318 
L 203.308108 385.583011 
L 204.405405 385.583011 
L 204.405405 381.430739 
L 204.954054 381.430739 
L 204.954054 379.354602 
L 205.502703 379.354602 
L 205.502703 375.20233 
L 206.051351 375.20233 
L 206.051351 370.531023 
L 206.6 370.531023 
L 206.6 368.97392 
L 207.148649 368.97392 
L 207.148649 366.897784 
L 207.697297 366.897784 
L 207.697297 365.859716 
L 208.245946 365.859716 
L 208.245946 361.707443 
L 209.343243 361.707443 
L 209.343243 359.112273 
L 209.891892 359.112273 
L 209.891892 358.074205 
L 210.440541 358.074205 
L 210.440541 355.479034 
L 210.989189 355.479034 
L 210.989189 354.96 
L 212.635135 354.96 
L 212.635135 353.921932 
L 213.183784 353.921932 
L 213.183784 353.402898 
L 213.732432 353.402898 
L 213.732432 352.36483 
L 214.281081 352.36483 
L 214.281081 351.326761 
L 214.82973 351.326761 
L 214.82973 348.212557 
L 215.378378 348.212557 
L 215.378378 347.693523 
L 215.927027 347.693523 
L 215.927027 346.655455 
L 216.475676 346.655455 
L 216.475676 345.617386 
L 217.024324 345.617386 
L 217.024324 345.098352 
L 217.572973 345.098352 
L 217.572973 341.984148 
L 218.67027 341.984148 
L 218.67027 339.388977 
L 219.218919 339.388977 
L 219.218919 338.869943 
L 219.767568 338.869943 
L 219.767568 336.793807 
L 220.316216 336.793807 
L 220.316216 336.274773 
L 220.864865 336.274773 
L 220.864865 335.236705 
L 221.413514 335.236705 
L 221.413514 334.198636 
L 221.962162 334.198636 
L 221.962162 333.679602 
L 222.510811 333.679602 
L 222.510811 327.970227 
L 223.059459 327.970227 
L 223.059459 326.413125 
L 224.705405 326.413125 
L 224.705405 322.260852 
L 225.254054 322.260852 
L 225.254054 318.627614 
L 225.802703 318.627614 
L 225.802703 317.070511 
L 226.351351 317.070511 
L 226.351351 316.551477 
L 227.448649 316.551477 
L 227.448649 314.475341 
L 227.997297 314.475341 
L 227.997297 311.88017 
L 228.545946 311.88017 
L 228.545946 311.361136 
L 229.643243 311.361136 
L 229.643243 310.842102 
L 230.191892 310.842102 
L 230.191892 309.804034 
L 231.837838 309.804034 
L 231.837838 306.68983 
L 232.386486 306.68983 
L 232.386486 304.094659 
L 232.935135 304.094659 
L 232.935135 299.423352 
L 233.483784 299.423352 
L 233.483784 297.347216 
L 234.032432 297.347216 
L 234.032432 296.828182 
L 235.12973 296.828182 
L 235.12973 296.309148 
L 236.775676 296.309148 
L 236.775676 295.790114 
L 237.324324 295.790114 
L 237.324324 294.752045 
L 241.713514 294.752045 
L 241.713514 294.233011 
L 242.262162 294.233011 
L 242.262162 292.675909 
L 243.359459 292.675909 
L 243.359459 292.156875 
L 244.456757 292.156875 
L 244.456757 291.637841 
L 245.005405 291.637841 
L 245.005405 290.599773 
L 245.554054 290.599773 
L 245.554054 289.561705 
L 246.651351 289.561705 
L 246.651351 289.04267 
L 247.2 289.04267 
L 247.2 288.004602 
L 247.748649 288.004602 
L 247.748649 286.966534 
L 248.297297 286.966534 
L 248.297297 285.409432 
L 248.845946 285.409432 
L 248.845946 277.104886 
L 249.394595 277.104886 
L 249.394595 270.876477 
L 250.491892 270.876477 
L 250.491892 268.800341 
L 251.040541 268.800341 
L 251.040541 267.243239 
L 254.332432 267.243239 
L 254.332432 265.167102 
L 255.978378 265.167102 
L 255.978378 263.61 
L 256.527027 263.61 
L 256.527027 263.090966 
L 257.075676 263.090966 
L 257.075676 261.533864 
L 259.27027 261.533864 
L 259.27027 261.01483 
L 259.818919 261.01483 
L 259.818919 256.343523 
L 260.916216 256.343523 
L 260.916216 253.748352 
L 261.464865 253.748352 
L 261.464865 253.229318 
L 262.562162 253.229318 
L 262.562162 252.710284 
L 263.110811 252.710284 
L 263.110811 252.19125 
L 264.208108 252.19125 
L 264.208108 251.672216 
L 265.305405 251.672216 
L 265.305405 250.634148 
L 266.402703 250.634148 
L 266.402703 249.59608 
L 268.597297 249.59608 
L 268.597297 249.077045 
L 270.243243 249.077045 
L 270.243243 248.558011 
L 271.340541 248.558011 
L 271.340541 248.038977 
L 271.889189 248.038977 
L 271.889189 244.924773 
L 272.986486 244.924773 
L 272.986486 243.886705 
L 273.535135 243.886705 
L 273.535135 242.848636 
L 274.083784 242.848636 
L 274.083784 241.810568 
L 274.632432 241.810568 
L 274.632432 240.253466 
L 275.181081 240.253466 
L 275.181081 239.734432 
L 275.72973 239.734432 
L 275.72973 239.215398 
L 276.827027 239.215398 
L 276.827027 238.17733 
L 277.375676 238.17733 
L 277.375676 237.658295 
L 277.924324 237.658295 
L 277.924324 236.620227 
L 279.021622 236.620227 
L 279.021622 232.986989 
L 280.118919 232.986989 
L 280.118919 231.94892 
L 280.667568 231.94892 
L 280.667568 231.429886 
L 281.216216 231.429886 
L 281.216216 230.391818 
L 282.313514 230.391818 
L 282.313514 229.35375 
L 283.410811 229.35375 
L 283.410811 228.315682 
L 283.959459 228.315682 
L 283.959459 226.239545 
L 284.508108 226.239545 
L 284.508108 225.201477 
L 285.056757 225.201477 
L 285.056757 223.125341 
L 285.605405 223.125341 
L 285.605405 222.087273 
L 287.251351 222.087273 
L 287.251351 221.568239 
L 287.8 221.568239 
L 287.8 220.53017 
L 288.348649 220.53017 
L 288.348649 220.011136 
L 288.897297 220.011136 
L 288.897297 218.973068 
L 289.445946 218.973068 
L 289.445946 216.896932 
L 290.543243 216.896932 
L 290.543243 216.377898 
L 291.091892 216.377898 
L 291.091892 215.33983 
L 291.640541 215.33983 
L 291.640541 214.301761 
L 292.737838 214.301761 
L 292.737838 211.706591 
L 294.383784 211.706591 
L 294.383784 209.11142 
L 294.932432 209.11142 
L 294.932432 208.592386 
L 295.481081 208.592386 
L 295.481081 208.073352 
L 296.578378 208.073352 
L 296.578378 206.51625 
L 297.127027 206.51625 
L 297.127027 205.997216 
L 297.675676 205.997216 
L 297.675676 205.478182 
L 298.224324 205.478182 
L 298.224324 203.92108 
L 299.321622 203.92108 
L 299.321622 203.402045 
L 299.87027 203.402045 
L 299.87027 201.325909 
L 300.967568 201.325909 
L 300.967568 200.806875 
L 301.516216 200.806875 
L 301.516216 199.768807 
L 302.613514 199.768807 
L 302.613514 197.173636 
L 303.710811 197.173636 
L 303.710811 194.578466 
L 304.259459 194.578466 
L 304.259459 194.059432 
L 305.356757 194.059432 
L 305.356757 191.983295 
L 306.454054 191.983295 
L 306.454054 189.907159 
L 307.551351 189.907159 
L 307.551351 188.350057 
L 309.197297 188.350057 
L 309.197297 187.831023 
L 310.294595 187.831023 
L 310.294595 186.792955 
L 311.940541 186.792955 
L 311.940541 186.27392 
L 313.586486 186.27392 
L 313.586486 185.754886 
L 314.683784 185.754886 
L 314.683784 185.235852 
L 315.232432 185.235852 
L 315.232432 184.197784 
L 315.781081 184.197784 
L 315.781081 181.08358 
L 316.878378 181.08358 
L 316.878378 180.564545 
L 317.975676 180.564545 
L 317.975676 180.045511 
L 318.524324 180.045511 
L 318.524324 179.526477 
L 319.621622 179.526477 
L 319.621622 175.374205 
L 320.718919 175.374205 
L 320.718919 174.85517 
L 321.267568 174.85517 
L 321.267568 174.336136 
L 322.364865 174.336136 
L 322.364865 173.817102 
L 323.462162 173.817102 
L 323.462162 172.779034 
L 324.010811 172.779034 
L 324.010811 171.740966 
L 324.559459 171.740966 
L 324.559459 170.183864 
L 326.754054 170.183864 
L 326.754054 169.66483 
L 327.851351 169.66483 
L 327.851351 169.145795 
L 328.948649 169.145795 
L 328.948649 168.626761 
L 330.045946 168.626761 
L 330.045946 167.588693 
L 330.594595 167.588693 
L 330.594595 167.069659 
L 331.691892 167.069659 
L 331.691892 164.993523 
L 334.983784 164.993523 
L 334.983784 164.474489 
L 336.081081 164.474489 
L 336.081081 163.43642 
L 337.727027 163.43642 
L 337.727027 161.879318 
L 339.372973 161.879318 
L 339.372973 159.284148 
L 339.921622 159.284148 
L 339.921622 158.24608 
L 341.018919 158.24608 
L 341.018919 156.169943 
L 343.213514 156.169943 
L 343.213514 155.131875 
L 344.310811 155.131875 
L 344.310811 154.612841 
L 344.859459 154.612841 
L 344.859459 154.093807 
L 345.408108 154.093807 
L 345.408108 153.574773 
L 345.956757 153.574773 
L 345.956757 153.055739 
L 346.505405 153.055739 
L 346.505405 150.460568 
L 347.054054 150.460568 
L 347.054054 149.941534 
L 348.151351 149.941534 
L 348.151351 149.4225 
L 348.7 149.4225 
L 348.7 148.384432 
L 350.345946 148.384432 
L 350.345946 147.865398 
L 350.894595 147.865398 
L 350.894595 146.82733 
L 353.089189 146.82733 
L 353.089189 146.308295 
L 354.186486 146.308295 
L 354.186486 144.232159 
L 355.832432 144.232159 
L 355.832432 143.194091 
L 356.92973 143.194091 
L 356.92973 141.636989 
L 357.478378 141.636989 
L 357.478378 141.117955 
L 358.575676 141.117955 
L 358.575676 139.560852 
L 360.77027 139.560852 
L 360.77027 139.041818 
L 361.318919 139.041818 
L 361.318919 138.522784 
L 362.416216 138.522784 
L 362.416216 138.00375 
L 364.062162 138.00375 
L 364.062162 136.446648 
L 365.708108 136.446648 
L 365.708108 135.40858 
L 366.805405 135.40858 
L 366.805405 134.370511 
L 367.354054 134.370511 
L 367.354054 133.851477 
L 371.194595 133.851477 
L 371.194595 133.332443 
L 372.840541 133.332443 
L 372.840541 132.813409 
L 375.035135 132.813409 
L 375.035135 132.294375 
L 376.681081 132.294375 
L 376.681081 131.775341 
L 377.22973 131.775341 
L 377.22973 130.737273 
L 379.424324 130.737273 
L 379.424324 129.699205 
L 382.716216 129.699205 
L 382.716216 129.18017 
L 384.910811 129.18017 
L 384.910811 127.623068 
L 387.105405 127.623068 
L 387.105405 127.104034 
L 387.654054 127.104034 
L 387.654054 126.585 
L 389.3 126.585 
L 389.3 126.065966 
L 395.883784 126.065966 
L 395.883784 125.546932 
L 398.627027 125.546932 
L 398.627027 125.027898 
L 399.724324 125.027898 
L 399.724324 124.508864 
L 400.272973 124.508864 
L 400.272973 123.98983 
L 403.016216 123.98983 
L 403.016216 123.470795 
L 403.564865 123.470795 
L 403.564865 121.913693 
L 404.662162 121.913693 
L 404.662162 121.394659 
L 405.759459 121.394659 
L 405.759459 120.875625 
L 407.954054 120.875625 
L 407.954054 120.356591 
L 410.148649 120.356591 
L 410.148649 119.318523 
L 410.697297 119.318523 
L 410.697297 118.799489 
L 411.794595 118.799489 
L 411.794595 118.280455 
L 412.891892 118.280455 
L 412.891892 117.76142 
L 415.635135 117.76142 
L 415.635135 117.242386 
L 416.183784 117.242386 
L 416.183784 116.723352 
L 417.281081 116.723352 
L 417.281081 116.204318 
L 417.82973 116.204318 
L 417.82973 115.685284 
L 418.378378 115.685284 
L 418.378378 115.16625 
L 418.927027 115.16625 
L 418.927027 114.647216 
L 426.608108 114.647216 
L 426.608108 114.128182 
L 428.802703 114.128182 
L 428.802703 113.090114 
L 432.094595 113.090114 
L 432.094595 112.052045 
L 433.191892 112.052045 
L 433.191892 111.533011 
L 433.740541 111.533011 
L 433.740541 109.975909 
L 434.837838 109.975909 
L 434.837838 109.456875 
L 435.386486 109.456875 
L 435.386486 108.937841 
L 436.483784 108.937841 
L 436.483784 108.418807 
L 437.032432 108.418807 
L 437.032432 107.899773 
L 437.581081 107.899773 
L 437.581081 107.380739 
L 443.067568 107.380739 
L 443.067568 106.861705 
L 443.616216 106.861705 
L 443.616216 106.34267 
L 444.713514 106.34267 
L 444.713514 105.823636 
L 445.810811 105.823636 
L 445.810811 104.785568 
L 446.359459 104.785568 
L 446.359459 104.266534 
L 447.456757 104.266534 
L 447.456757 103.7475 
L 448.005405 103.7475 
L 448.005405 102.190398 
L 449.651351 102.190398 
L 449.651351 101.671364 
L 450.2 101.671364 
L 450.2 101.15233 
L 453.491892 101.15233 
L 453.491892 100.114261 
L 455.686486 100.114261 
L 455.686486 99.595227 
L 458.42973 99.595227 
L 458.42973 98.038125 
L 460.075676 98.038125 
L 460.075676 97.519091 
L 460.624324 97.519091 
L 460.624324 96.481023 
L 465.013514 96.481023 
L 465.013514 95.442955 
L 466.110811 95.442955 
L 466.110811 94.92392 
L 467.208108 94.92392 
L 467.208108 94.404886 
L 471.597297 94.404886 
L 471.597297 93.885852 
L 474.340541 93.885852 
L 474.340541 93.366818 
L 478.72973 93.366818 
L 478.72973 92.32875 
L 483.667568 92.32875 
L 483.667568 91.809716 
L 490.8 91.809716 
L 490.8 91.290682 
L 493.543243 91.290682 
L 493.543243 90.252614 
L 494.640541 90.252614 
L 494.640541 89.73358 
L 499.02973 89.73358 
L 499.02973 89.214545 
L 499.578378 89.214545 
L 499.578378 88.695511 
L 504.516216 88.695511 
L 504.516216 88.176477 
L 505.064865 88.176477 
L 505.064865 87.657443 
L 509.454054 87.657443 
L 509.454054 87.138409 
L 518.781081 87.138409 
L 518.781081 86.619375 
L 520.975676 86.619375 
L 520.975676 85.581307 
L 522.072973 85.581307 
L 522.072973 85.062273 
L 522.621622 85.062273 
L 522.621622 84.543239 
L 523.718919 84.543239 
L 523.718919 84.024205 
L 525.364865 84.024205 
L 525.364865 83.50517 
L 530.302703 83.50517 
L 530.302703 82.986136 
L 531.948649 82.986136 
L 531.948649 81.948068 
L 533.594595 81.948068 
L 533.594595 80.91 
L 551.7 80.91 
L 551.7 80.91 
" style="fill:none;stroke:#ece133;stroke-linecap:square;stroke-width:2;"/>
   </g>
   <g id="line2d_22">
    <path clip-path="url(#p418a1bd56b)" d="M 186.3 446.31 
L 551.7 80.91 
" style="fill:none;stroke:#000000;stroke-dasharray:7.4,3.2;stroke-dashoffset:0;stroke-width:2;"/>
   </g>
   <g id="patch_3">
    <path d="M 168.03 464.58 
L 168.03 62.64 
" style="fill:none;stroke:#000000;stroke-linecap:square;stroke-linejoin:miter;stroke-width:0.8;"/>
   </g>
   <g id="patch_4">
    <path d="M 569.97 464.58 
L 569.97 62.64 
" style="fill:none;stroke:#000000;stroke-linecap:square;stroke-linejoin:miter;stroke-width:0.8;"/>
   </g>
   <g id="patch_5">
    <path d="M 168.03 464.58 
L 569.97 464.58 
" style="fill:none;stroke:#000000;stroke-linecap:square;stroke-linejoin:miter;stroke-width:0.8;"/>
   </g>
   <g id="patch_6">
    <path d="M 168.03 62.64 
L 569.97 62.64 
" style="fill:none;stroke:#000000;stroke-linecap:square;stroke-linejoin:miter;stroke-width:0.8;"/>
   </g>
   <g id="legend_1">
    <g id="patch_7">
     <path d="M 362.1075 458.58 
L 561.57 458.58 
Q 563.97 458.58 563.97 456.18 
L 563.97 298.85625 
Q 563.97 296.45625 561.57 296.45625 
L 362.1075 296.45625 
Q 359.7075 296.45625 359.7075 298.85625 
L 359.7075 456.18 
Q 359.7075 458.58 362.1075 458.58 
z
" style="fill:#ffffff;opacity:0.8;stroke:#cccccc;stroke-linejoin:miter;"/>
    </g>
    <g id="line2d_23">
     <path d="M 364.5075 306.174375 
L 388.5075 306.174375 
" style="fill:none;stroke:#0173b2;stroke-linecap:square;stroke-width:2;"/>
    </g>
    <g id="line2d_24"/>
    <g id="text_15">
     <!-- Bladder (LR, AUC=0.75) -->
     <defs>
      <path d="M 19.671875 34.8125 
L 19.671875 8.109375 
L 35.5 8.109375 
Q 43.453125 8.109375 47.28125 11.40625 
Q 51.125 14.703125 51.125 21.484375 
Q 51.125 28.328125 47.28125 31.5625 
Q 43.453125 34.8125 35.5 34.8125 
z
M 19.671875 64.796875 
L 19.671875 42.828125 
L 34.28125 42.828125 
Q 41.5 42.828125 45.03125 45.53125 
Q 48.578125 48.25 48.578125 53.8125 
Q 48.578125 59.328125 45.03125 62.0625 
Q 41.5 64.796875 34.28125 64.796875 
z
M 9.8125 72.90625 
L 35.015625 72.90625 
Q 46.296875 72.90625 52.390625 68.21875 
Q 58.5 63.53125 58.5 54.890625 
Q 58.5 48.1875 55.375 44.234375 
Q 52.25 40.28125 46.1875 39.3125 
Q 53.46875 37.75 57.5 32.78125 
Q 61.53125 27.828125 61.53125 20.40625 
Q 61.53125 10.640625 54.890625 5.3125 
Q 48.25 0 35.984375 0 
L 9.8125 0 
z
" id="DejaVuSans-66"/>
      <path d="M 45.40625 46.390625 
L 45.40625 75.984375 
L 54.390625 75.984375 
L 54.390625 0 
L 45.40625 0 
L 45.40625 8.203125 
Q 42.578125 3.328125 38.25 0.953125 
Q 33.9375 -1.421875 27.875 -1.421875 
Q 17.96875 -1.421875 11.734375 6.484375 
Q 5.515625 14.40625 5.515625 27.296875 
Q 5.515625 40.1875 11.734375 48.09375 
Q 17.96875 56 27.875 56 
Q 33.9375 56 38.25 53.625 
Q 42.578125 51.265625 45.40625 46.390625 
z
M 14.796875 27.296875 
Q 14.796875 17.390625 18.875 11.75 
Q 22.953125 6.109375 30.078125 6.109375 
Q 37.203125 6.109375 41.296875 11.75 
Q 45.40625 17.390625 45.40625 27.296875 
Q 45.40625 37.203125 41.296875 42.84375 
Q 37.203125 48.484375 30.078125 48.484375 
Q 22.953125 48.484375 18.875 42.84375 
Q 14.796875 37.203125 14.796875 27.296875 
z
" id="DejaVuSans-100"/>
      <path d="M 31 75.875 
Q 24.46875 64.65625 21.28125 53.65625 
Q 18.109375 42.671875 18.109375 31.390625 
Q 18.109375 20.125 21.3125 9.0625 
Q 24.515625 -2 31 -13.1875 
L 23.1875 -13.1875 
Q 15.875 -1.703125 12.234375 9.375 
Q 8.59375 20.453125 8.59375 31.390625 
Q 8.59375 42.28125 12.203125 53.3125 
Q 15.828125 64.359375 23.1875 75.875 
z
" id="DejaVuSans-40"/>
      <path d="M 9.8125 72.90625 
L 19.671875 72.90625 
L 19.671875 8.296875 
L 55.171875 8.296875 
L 55.171875 0 
L 9.8125 0 
z
" id="DejaVuSans-76"/>
      <path d="M 44.390625 34.1875 
Q 47.5625 33.109375 50.5625 29.59375 
Q 53.5625 26.078125 56.59375 19.921875 
L 66.609375 0 
L 56 0 
L 46.6875 18.703125 
Q 43.0625 26.03125 39.671875 28.421875 
Q 36.28125 30.8125 30.421875 30.8125 
L 19.671875 30.8125 
L 19.671875 0 
L 9.8125 0 
L 9.8125 72.90625 
L 32.078125 72.90625 
Q 44.578125 72.90625 50.734375 67.671875 
Q 56.890625 62.453125 56.890625 51.90625 
Q 56.890625 45.015625 53.6875 40.46875 
Q 50.484375 35.9375 44.390625 34.1875 
z
M 19.671875 64.796875 
L 19.671875 38.921875 
L 32.078125 38.921875 
Q 39.203125 38.921875 42.84375 42.21875 
Q 46.484375 45.515625 46.484375 51.90625 
Q 46.484375 58.296875 42.84375 61.546875 
Q 39.203125 64.796875 32.078125 64.796875 
z
" id="DejaVuSans-82"/>
      <path d="M 11.71875 12.40625 
L 22.015625 12.40625 
L 22.015625 4 
L 14.015625 -11.625 
L 7.71875 -11.625 
L 11.71875 4 
z
" id="DejaVuSans-44"/>
      <path d="M 34.1875 63.1875 
L 20.796875 26.90625 
L 47.609375 26.90625 
z
M 28.609375 72.90625 
L 39.796875 72.90625 
L 67.578125 0 
L 57.328125 0 
L 50.6875 18.703125 
L 17.828125 18.703125 
L 11.1875 0 
L 0.78125 0 
z
" id="DejaVuSans-65"/>
      <path d="M 8.6875 72.90625 
L 18.609375 72.90625 
L 18.609375 28.609375 
Q 18.609375 16.890625 22.84375 11.734375 
Q 27.09375 6.59375 36.625 6.59375 
Q 46.09375 6.59375 50.34375 11.734375 
Q 54.59375 16.890625 54.59375 28.609375 
L 54.59375 72.90625 
L 64.5 72.90625 
L 64.5 27.390625 
Q 64.5 13.140625 57.4375 5.859375 
Q 50.390625 -1.421875 36.625 -1.421875 
Q 22.796875 -1.421875 15.734375 5.859375 
Q 8.6875 13.140625 8.6875 27.390625 
z
" id="DejaVuSans-85"/>
      <path d="M 64.40625 67.28125 
L 64.40625 56.890625 
Q 59.421875 61.53125 53.78125 63.8125 
Q 48.140625 66.109375 41.796875 66.109375 
Q 29.296875 66.109375 22.65625 58.46875 
Q 16.015625 50.828125 16.015625 36.375 
Q 16.015625 21.96875 22.65625 14.328125 
Q 29.296875 6.6875 41.796875 6.6875 
Q 48.140625 6.6875 53.78125 8.984375 
Q 59.421875 11.28125 64.40625 15.921875 
L 64.40625 5.609375 
Q 59.234375 2.09375 53.4375 0.328125 
Q 47.65625 -1.421875 41.21875 -1.421875 
Q 24.65625 -1.421875 15.125 8.703125 
Q 5.609375 18.84375 5.609375 36.375 
Q 5.609375 53.953125 15.125 64.078125 
Q 24.65625 74.21875 41.21875 74.21875 
Q 47.75 74.21875 53.53125 72.484375 
Q 59.328125 70.75 64.40625 67.28125 
z
" id="DejaVuSans-67"/>
      <path d="M 10.59375 45.40625 
L 73.1875 45.40625 
L 73.1875 37.203125 
L 10.59375 37.203125 
z
M 10.59375 25.484375 
L 73.1875 25.484375 
L 73.1875 17.1875 
L 10.59375 17.1875 
z
" id="DejaVuSans-61"/>
      <path d="M 8.203125 72.90625 
L 55.078125 72.90625 
L 55.078125 68.703125 
L 28.609375 0 
L 18.3125 0 
L 43.21875 64.59375 
L 8.203125 64.59375 
z
" id="DejaVuSans-55"/>
      <path d="M 10.796875 72.90625 
L 49.515625 72.90625 
L 49.515625 64.59375 
L 19.828125 64.59375 
L 19.828125 46.734375 
Q 21.96875 47.46875 24.109375 47.828125 
Q 26.265625 48.1875 28.421875 48.1875 
Q 40.625 48.1875 47.75 41.5 
Q 54.890625 34.8125 54.890625 23.390625 
Q 54.890625 11.625 47.5625 5.09375 
Q 40.234375 -1.421875 26.90625 -1.421875 
Q 22.3125 -1.421875 17.546875 -0.640625 
Q 12.796875 0.140625 7.71875 1.703125 
L 7.71875 11.625 
Q 12.109375 9.234375 16.796875 8.0625 
Q 21.484375 6.890625 26.703125 6.890625 
Q 35.15625 6.890625 40.078125 11.328125 
Q 45.015625 15.765625 45.015625 23.390625 
Q 45.015625 31 40.078125 35.4375 
Q 35.15625 39.890625 26.703125 39.890625 
Q 22.75 39.890625 18.8125 39.015625 
Q 14.890625 38.140625 10.796875 36.28125 
z
" id="DejaVuSans-53"/>
      <path d="M 8.015625 75.875 
L 15.828125 75.875 
Q 23.140625 64.359375 26.78125 53.3125 
Q 30.421875 42.28125 30.421875 31.390625 
Q 30.421875 20.453125 26.78125 9.375 
Q 23.140625 -1.703125 15.828125 -13.1875 
L 8.015625 -13.1875 
Q 14.5 -2 17.703125 9.0625 
Q 20.90625 20.125 20.90625 31.390625 
Q 20.90625 42.671875 17.703125 53.65625 
Q 14.5 64.65625 8.015625 75.875 
z
" id="DejaVuSans-41"/>
     </defs>
     <g transform="translate(398.1075 310.374375)scale(0.12 -0.12)">
      <use xlink:href="#DejaVuSans-66"/>
      <use x="68.603516" xlink:href="#DejaVuSans-108"/>
      <use x="96.386719" xlink:href="#DejaVuSans-97"/>
      <use x="157.666016" xlink:href="#DejaVuSans-100"/>
      <use x="221.142578" xlink:href="#DejaVuSans-100"/>
      <use x="284.619141" xlink:href="#DejaVuSans-101"/>
      <use x="346.142578" xlink:href="#DejaVuSans-114"/>
      <use x="387.255859" xlink:href="#DejaVuSans-32"/>
      <use x="419.042969" xlink:href="#DejaVuSans-40"/>
      <use x="458.056641" xlink:href="#DejaVuSans-76"/>
      <use x="513.769531" xlink:href="#DejaVuSans-82"/>
      <use x="583.251953" xlink:href="#DejaVuSans-44"/>
      <use x="615.039062" xlink:href="#DejaVuSans-32"/>
      <use x="646.826172" xlink:href="#DejaVuSans-65"/>
      <use x="715.234375" xlink:href="#DejaVuSans-85"/>
      <use x="788.427734" xlink:href="#DejaVuSans-67"/>
      <use x="858.251953" xlink:href="#DejaVuSans-61"/>
      <use x="942.041016" xlink:href="#DejaVuSans-48"/>
      <use x="1005.664062" xlink:href="#DejaVuSans-46"/>
      <use x="1037.451172" xlink:href="#DejaVuSans-55"/>
      <use x="1101.074219" xlink:href="#DejaVuSans-53"/>
      <use x="1164.697266" xlink:href="#DejaVuSans-41"/>
     </g>
    </g>
    <g id="line2d_25">
     <path d="M 364.5075 323.788125 
L 388.5075 323.788125 
" style="fill:none;stroke:#de8f05;stroke-linecap:square;stroke-width:2;"/>
    </g>
    <g id="line2d_26"/>
    <g id="text_16">
     <!-- Breast (LR, AUC=0.69) -->
     <defs>
      <path d="M 10.984375 1.515625 
L 10.984375 10.5 
Q 14.703125 8.734375 18.5 7.8125 
Q 22.3125 6.890625 25.984375 6.890625 
Q 35.75 6.890625 40.890625 13.453125 
Q 46.046875 20.015625 46.78125 33.40625 
Q 43.953125 29.203125 39.59375 26.953125 
Q 35.25 24.703125 29.984375 24.703125 
Q 19.046875 24.703125 12.671875 31.3125 
Q 6.296875 37.9375 6.296875 49.421875 
Q 6.296875 60.640625 12.9375 67.421875 
Q 19.578125 74.21875 30.609375 74.21875 
Q 43.265625 74.21875 49.921875 64.515625 
Q 56.59375 54.828125 56.59375 36.375 
Q 56.59375 19.140625 48.40625 8.859375 
Q 40.234375 -1.421875 26.421875 -1.421875 
Q 22.703125 -1.421875 18.890625 -0.6875 
Q 15.09375 0.046875 10.984375 1.515625 
z
M 30.609375 32.421875 
Q 37.25 32.421875 41.125 36.953125 
Q 45.015625 41.5 45.015625 49.421875 
Q 45.015625 57.28125 41.125 61.84375 
Q 37.25 66.40625 30.609375 66.40625 
Q 23.96875 66.40625 20.09375 61.84375 
Q 16.21875 57.28125 16.21875 49.421875 
Q 16.21875 41.5 20.09375 36.953125 
Q 23.96875 32.421875 30.609375 32.421875 
z
" id="DejaVuSans-57"/>
     </defs>
     <g transform="translate(398.1075 327.988125)scale(0.12 -0.12)">
      <use xlink:href="#DejaVuSans-66"/>
      <use x="68.603516" xlink:href="#DejaVuSans-114"/>
      <use x="109.685547" xlink:href="#DejaVuSans-101"/>
      <use x="171.208984" xlink:href="#DejaVuSans-97"/>
      <use x="232.488281" xlink:href="#DejaVuSans-115"/>
      <use x="284.587891" xlink:href="#DejaVuSans-116"/>
      <use x="323.796875" xlink:href="#DejaVuSans-32"/>
      <use x="355.583984" xlink:href="#DejaVuSans-40"/>
      <use x="394.597656" xlink:href="#DejaVuSans-76"/>
      <use x="450.310547" xlink:href="#DejaVuSans-82"/>
      <use x="519.792969" xlink:href="#DejaVuSans-44"/>
      <use x="551.580078" xlink:href="#DejaVuSans-32"/>
      <use x="583.367188" xlink:href="#DejaVuSans-65"/>
      <use x="651.775391" xlink:href="#DejaVuSans-85"/>
      <use x="724.96875" xlink:href="#DejaVuSans-67"/>
      <use x="794.792969" xlink:href="#DejaVuSans-61"/>
      <use x="878.582031" xlink:href="#DejaVuSans-48"/>
      <use x="942.205078" xlink:href="#DejaVuSans-46"/>
      <use x="973.992188" xlink:href="#DejaVuSans-54"/>
      <use x="1037.615234" xlink:href="#DejaVuSans-57"/>
      <use x="1101.238281" xlink:href="#DejaVuSans-41"/>
     </g>
    </g>
    <g id="line2d_27">
     <path d="M 364.5075 341.401875 
L 388.5075 341.401875 
" style="fill:none;stroke:#029e73;stroke-linecap:square;stroke-width:2;"/>
    </g>
    <g id="line2d_28"/>
    <g id="text_17">
     <!-- Colon (LR, AUC=0.72) -->
     <defs>
      <path d="M 54.890625 33.015625 
L 54.890625 0 
L 45.90625 0 
L 45.90625 32.71875 
Q 45.90625 40.484375 42.875 44.328125 
Q 39.84375 48.1875 33.796875 48.1875 
Q 26.515625 48.1875 22.3125 43.546875 
Q 18.109375 38.921875 18.109375 30.90625 
L 18.109375 0 
L 9.078125 0 
L 9.078125 54.6875 
L 18.109375 54.6875 
L 18.109375 46.1875 
Q 21.34375 51.125 25.703125 53.5625 
Q 30.078125 56 35.796875 56 
Q 45.21875 56 50.046875 50.171875 
Q 54.890625 44.34375 54.890625 33.015625 
z
" id="DejaVuSans-110"/>
     </defs>
     <g transform="translate(398.1075 345.601875)scale(0.12 -0.12)">
      <use xlink:href="#DejaVuSans-67"/>
      <use x="69.824219" xlink:href="#DejaVuSans-111"/>
      <use x="131.005859" xlink:href="#DejaVuSans-108"/>
      <use x="158.789062" xlink:href="#DejaVuSans-111"/>
      <use x="219.970703" xlink:href="#DejaVuSans-110"/>
      <use x="283.349609" xlink:href="#DejaVuSans-32"/>
      <use x="315.136719" xlink:href="#DejaVuSans-40"/>
      <use x="354.150391" xlink:href="#DejaVuSans-76"/>
      <use x="409.863281" xlink:href="#DejaVuSans-82"/>
      <use x="479.345703" xlink:href="#DejaVuSans-44"/>
      <use x="511.132812" xlink:href="#DejaVuSans-32"/>
      <use x="542.919922" xlink:href="#DejaVuSans-65"/>
      <use x="611.328125" xlink:href="#DejaVuSans-85"/>
      <use x="684.521484" xlink:href="#DejaVuSans-67"/>
      <use x="754.345703" xlink:href="#DejaVuSans-61"/>
      <use x="838.134766" xlink:href="#DejaVuSans-48"/>
      <use x="901.757812" xlink:href="#DejaVuSans-46"/>
      <use x="933.544922" xlink:href="#DejaVuSans-55"/>
      <use x="997.167969" xlink:href="#DejaVuSans-50"/>
      <use x="1060.791016" xlink:href="#DejaVuSans-41"/>
     </g>
    </g>
    <g id="line2d_29">
     <path d="M 364.5075 359.015625 
L 388.5075 359.015625 
" style="fill:none;stroke:#d55e00;stroke-linecap:square;stroke-width:2;"/>
    </g>
    <g id="line2d_30"/>
    <g id="text_18">
     <!-- Kidney (LR, AUC=0.81) -->
     <defs>
      <path d="M 9.8125 72.90625 
L 19.671875 72.90625 
L 19.671875 42.09375 
L 52.390625 72.90625 
L 65.09375 72.90625 
L 28.90625 38.921875 
L 67.671875 0 
L 54.6875 0 
L 19.671875 35.109375 
L 19.671875 0 
L 9.8125 0 
z
" id="DejaVuSans-75"/>
      <path d="M 32.171875 -5.078125 
Q 28.375 -14.84375 24.75 -17.8125 
Q 21.140625 -20.796875 15.09375 -20.796875 
L 7.90625 -20.796875 
L 7.90625 -13.28125 
L 13.1875 -13.28125 
Q 16.890625 -13.28125 18.9375 -11.515625 
Q 21 -9.765625 23.484375 -3.21875 
L 25.09375 0.875 
L 2.984375 54.6875 
L 12.5 54.6875 
L 29.59375 11.921875 
L 46.6875 54.6875 
L 56.203125 54.6875 
z
" id="DejaVuSans-121"/>
     </defs>
     <g transform="translate(398.1075 363.215625)scale(0.12 -0.12)">
      <use xlink:href="#DejaVuSans-75"/>
      <use x="65.576172" xlink:href="#DejaVuSans-105"/>
      <use x="93.359375" xlink:href="#DejaVuSans-100"/>
      <use x="156.835938" xlink:href="#DejaVuSans-110"/>
      <use x="220.214844" xlink:href="#DejaVuSans-101"/>
      <use x="281.738281" xlink:href="#DejaVuSans-121"/>
      <use x="340.917969" xlink:href="#DejaVuSans-32"/>
      <use x="372.705078" xlink:href="#DejaVuSans-40"/>
      <use x="411.71875" xlink:href="#DejaVuSans-76"/>
      <use x="467.431641" xlink:href="#DejaVuSans-82"/>
      <use x="536.914062" xlink:href="#DejaVuSans-44"/>
      <use x="568.701172" xlink:href="#DejaVuSans-32"/>
      <use x="600.488281" xlink:href="#DejaVuSans-65"/>
      <use x="668.896484" xlink:href="#DejaVuSans-85"/>
      <use x="742.089844" xlink:href="#DejaVuSans-67"/>
      <use x="811.914062" xlink:href="#DejaVuSans-61"/>
      <use x="895.703125" xlink:href="#DejaVuSans-48"/>
      <use x="959.326172" xlink:href="#DejaVuSans-46"/>
      <use x="991.113281" xlink:href="#DejaVuSans-56"/>
      <use x="1054.736328" xlink:href="#DejaVuSans-49"/>
      <use x="1118.359375" xlink:href="#DejaVuSans-41"/>
     </g>
    </g>
    <g id="line2d_31">
     <path d="M 364.5075 376.629375 
L 388.5075 376.629375 
" style="fill:none;stroke:#cc78bc;stroke-linecap:square;stroke-width:2;"/>
    </g>
    <g id="line2d_32"/>
    <g id="text_19">
     <!-- Leukemia (LR, AUC=0.73) -->
     <defs>
      <path d="M 9.078125 75.984375 
L 18.109375 75.984375 
L 18.109375 31.109375 
L 44.921875 54.6875 
L 56.390625 54.6875 
L 27.390625 29.109375 
L 57.625 0 
L 45.90625 0 
L 18.109375 26.703125 
L 18.109375 0 
L 9.078125 0 
z
" id="DejaVuSans-107"/>
      <path d="M 52 44.1875 
Q 55.375 50.25 60.0625 53.125 
Q 64.75 56 71.09375 56 
Q 79.640625 56 84.28125 50.015625 
Q 88.921875 44.046875 88.921875 33.015625 
L 88.921875 0 
L 79.890625 0 
L 79.890625 32.71875 
Q 79.890625 40.578125 77.09375 44.375 
Q 74.3125 48.1875 68.609375 48.1875 
Q 61.625 48.1875 57.5625 43.546875 
Q 53.515625 38.921875 53.515625 30.90625 
L 53.515625 0 
L 44.484375 0 
L 44.484375 32.71875 
Q 44.484375 40.625 41.703125 44.40625 
Q 38.921875 48.1875 33.109375 48.1875 
Q 26.21875 48.1875 22.15625 43.53125 
Q 18.109375 38.875 18.109375 30.90625 
L 18.109375 0 
L 9.078125 0 
L 9.078125 54.6875 
L 18.109375 54.6875 
L 18.109375 46.1875 
Q 21.1875 51.21875 25.484375 53.609375 
Q 29.78125 56 35.6875 56 
Q 41.65625 56 45.828125 52.96875 
Q 50 49.953125 52 44.1875 
z
" id="DejaVuSans-109"/>
      <path d="M 40.578125 39.3125 
Q 47.65625 37.796875 51.625 33 
Q 55.609375 28.21875 55.609375 21.1875 
Q 55.609375 10.40625 48.1875 4.484375 
Q 40.765625 -1.421875 27.09375 -1.421875 
Q 22.515625 -1.421875 17.65625 -0.515625 
Q 12.796875 0.390625 7.625 2.203125 
L 7.625 11.71875 
Q 11.71875 9.328125 16.59375 8.109375 
Q 21.484375 6.890625 26.8125 6.890625 
Q 36.078125 6.890625 40.9375 10.546875 
Q 45.796875 14.203125 45.796875 21.1875 
Q 45.796875 27.640625 41.28125 31.265625 
Q 36.765625 34.90625 28.71875 34.90625 
L 20.21875 34.90625 
L 20.21875 43.015625 
L 29.109375 43.015625 
Q 36.375 43.015625 40.234375 45.921875 
Q 44.09375 48.828125 44.09375 54.296875 
Q 44.09375 59.90625 40.109375 62.90625 
Q 36.140625 65.921875 28.71875 65.921875 
Q 24.65625 65.921875 20.015625 65.03125 
Q 15.375 64.15625 9.8125 62.3125 
L 9.8125 71.09375 
Q 15.4375 72.65625 20.34375 73.4375 
Q 25.25 74.21875 29.59375 74.21875 
Q 40.828125 74.21875 47.359375 69.109375 
Q 53.90625 64.015625 53.90625 55.328125 
Q 53.90625 49.265625 50.4375 45.09375 
Q 46.96875 40.921875 40.578125 39.3125 
z
" id="DejaVuSans-51"/>
     </defs>
     <g transform="translate(398.1075 380.829375)scale(0.12 -0.12)">
      <use xlink:href="#DejaVuSans-76"/>
      <use x="55.697266" xlink:href="#DejaVuSans-101"/>
      <use x="117.220703" xlink:href="#DejaVuSans-117"/>
      <use x="180.599609" xlink:href="#DejaVuSans-107"/>
      <use x="238.462891" xlink:href="#DejaVuSans-101"/>
      <use x="299.986328" xlink:href="#DejaVuSans-109"/>
      <use x="397.398438" xlink:href="#DejaVuSans-105"/>
      <use x="425.181641" xlink:href="#DejaVuSans-97"/>
      <use x="486.460938" xlink:href="#DejaVuSans-32"/>
      <use x="518.248047" xlink:href="#DejaVuSans-40"/>
      <use x="557.261719" xlink:href="#DejaVuSans-76"/>
      <use x="612.974609" xlink:href="#DejaVuSans-82"/>
      <use x="682.457031" xlink:href="#DejaVuSans-44"/>
      <use x="714.244141" xlink:href="#DejaVuSans-32"/>
      <use x="746.03125" xlink:href="#DejaVuSans-65"/>
      <use x="814.439453" xlink:href="#DejaVuSans-85"/>
      <use x="887.632812" xlink:href="#DejaVuSans-67"/>
      <use x="957.457031" xlink:href="#DejaVuSans-61"/>
      <use x="1041.246094" xlink:href="#DejaVuSans-48"/>
      <use x="1104.869141" xlink:href="#DejaVuSans-46"/>
      <use x="1136.65625" xlink:href="#DejaVuSans-55"/>
      <use x="1200.279297" xlink:href="#DejaVuSans-51"/>
      <use x="1263.902344" xlink:href="#DejaVuSans-41"/>
     </g>
    </g>
    <g id="line2d_33">
     <path d="M 364.5075 394.243125 
L 388.5075 394.243125 
" style="fill:none;stroke:#ca9161;stroke-linecap:square;stroke-width:2;"/>
    </g>
    <g id="line2d_34"/>
    <g id="text_20">
     <!-- Liver (LR, AUC=0.77) -->
     <g transform="translate(398.1075 398.443125)scale(0.12 -0.12)">
      <use xlink:href="#DejaVuSans-76"/>
      <use x="55.712891" xlink:href="#DejaVuSans-105"/>
      <use x="83.496094" xlink:href="#DejaVuSans-118"/>
      <use x="142.675781" xlink:href="#DejaVuSans-101"/>
      <use x="204.199219" xlink:href="#DejaVuSans-114"/>
      <use x="245.3125" xlink:href="#DejaVuSans-32"/>
      <use x="277.099609" xlink:href="#DejaVuSans-40"/>
      <use x="316.113281" xlink:href="#DejaVuSans-76"/>
      <use x="371.826172" xlink:href="#DejaVuSans-82"/>
      <use x="441.308594" xlink:href="#DejaVuSans-44"/>
      <use x="473.095703" xlink:href="#DejaVuSans-32"/>
      <use x="504.882812" xlink:href="#DejaVuSans-65"/>
      <use x="573.291016" xlink:href="#DejaVuSans-85"/>
      <use x="646.484375" xlink:href="#DejaVuSans-67"/>
      <use x="716.308594" xlink:href="#DejaVuSans-61"/>
      <use x="800.097656" xlink:href="#DejaVuSans-48"/>
      <use x="863.720703" xlink:href="#DejaVuSans-46"/>
      <use x="895.507812" xlink:href="#DejaVuSans-55"/>
      <use x="959.130859" xlink:href="#DejaVuSans-55"/>
      <use x="1022.753906" xlink:href="#DejaVuSans-41"/>
     </g>
    </g>
    <g id="line2d_35">
     <path d="M 364.5075 411.856875 
L 388.5075 411.856875 
" style="fill:none;stroke:#fbafe4;stroke-linecap:square;stroke-width:2;"/>
    </g>
    <g id="line2d_36"/>
    <g id="text_21">
     <!-- Lung (NN, AUC=0.70) -->
     <defs>
      <path d="M 45.40625 27.984375 
Q 45.40625 37.75 41.375 43.109375 
Q 37.359375 48.484375 30.078125 48.484375 
Q 22.859375 48.484375 18.828125 43.109375 
Q 14.796875 37.75 14.796875 27.984375 
Q 14.796875 18.265625 18.828125 12.890625 
Q 22.859375 7.515625 30.078125 7.515625 
Q 37.359375 7.515625 41.375 12.890625 
Q 45.40625 18.265625 45.40625 27.984375 
z
M 54.390625 6.78125 
Q 54.390625 -7.171875 48.1875 -13.984375 
Q 42 -20.796875 29.203125 -20.796875 
Q 24.46875 -20.796875 20.265625 -20.09375 
Q 16.0625 -19.390625 12.109375 -17.921875 
L 12.109375 -9.1875 
Q 16.0625 -11.328125 19.921875 -12.34375 
Q 23.78125 -13.375 27.78125 -13.375 
Q 36.625 -13.375 41.015625 -8.765625 
Q 45.40625 -4.15625 45.40625 5.171875 
L 45.40625 9.625 
Q 42.625 4.78125 38.28125 2.390625 
Q 33.9375 0 27.875 0 
Q 17.828125 0 11.671875 7.65625 
Q 5.515625 15.328125 5.515625 27.984375 
Q 5.515625 40.671875 11.671875 48.328125 
Q 17.828125 56 27.875 56 
Q 33.9375 56 38.28125 53.609375 
Q 42.625 51.21875 45.40625 46.390625 
L 45.40625 54.6875 
L 54.390625 54.6875 
z
" id="DejaVuSans-103"/>
      <path d="M 9.8125 72.90625 
L 23.09375 72.90625 
L 55.421875 11.921875 
L 55.421875 72.90625 
L 64.984375 72.90625 
L 64.984375 0 
L 51.703125 0 
L 19.390625 60.984375 
L 19.390625 0 
L 9.8125 0 
z
" id="DejaVuSans-78"/>
     </defs>
     <g transform="translate(398.1075 416.056875)scale(0.12 -0.12)">
      <use xlink:href="#DejaVuSans-76"/>
      <use x="55.697266" xlink:href="#DejaVuSans-117"/>
      <use x="119.076172" xlink:href="#DejaVuSans-110"/>
      <use x="182.455078" xlink:href="#DejaVuSans-103"/>
      <use x="245.931641" xlink:href="#DejaVuSans-32"/>
      <use x="277.71875" xlink:href="#DejaVuSans-40"/>
      <use x="316.732422" xlink:href="#DejaVuSans-78"/>
      <use x="391.537109" xlink:href="#DejaVuSans-78"/>
      <use x="466.341797" xlink:href="#DejaVuSans-44"/>
      <use x="498.128906" xlink:href="#DejaVuSans-32"/>
      <use x="529.916016" xlink:href="#DejaVuSans-65"/>
      <use x="598.324219" xlink:href="#DejaVuSans-85"/>
      <use x="671.517578" xlink:href="#DejaVuSans-67"/>
      <use x="741.341797" xlink:href="#DejaVuSans-61"/>
      <use x="825.130859" xlink:href="#DejaVuSans-48"/>
      <use x="888.753906" xlink:href="#DejaVuSans-46"/>
      <use x="920.541016" xlink:href="#DejaVuSans-55"/>
      <use x="984.164062" xlink:href="#DejaVuSans-48"/>
      <use x="1047.787109" xlink:href="#DejaVuSans-41"/>
     </g>
    </g>
    <g id="line2d_37">
     <path d="M 364.5075 429.470625 
L 388.5075 429.470625 
" style="fill:none;stroke:#949494;stroke-linecap:square;stroke-width:2;"/>
    </g>
    <g id="line2d_38"/>
    <g id="text_22">
     <!-- Ovarian (LR, AUC=0.76) -->
     <defs>
      <path d="M 39.40625 66.21875 
Q 28.65625 66.21875 22.328125 58.203125 
Q 16.015625 50.203125 16.015625 36.375 
Q 16.015625 22.609375 22.328125 14.59375 
Q 28.65625 6.59375 39.40625 6.59375 
Q 50.140625 6.59375 56.421875 14.59375 
Q 62.703125 22.609375 62.703125 36.375 
Q 62.703125 50.203125 56.421875 58.203125 
Q 50.140625 66.21875 39.40625 66.21875 
z
M 39.40625 74.21875 
Q 54.734375 74.21875 63.90625 63.9375 
Q 73.09375 53.65625 73.09375 36.375 
Q 73.09375 19.140625 63.90625 8.859375 
Q 54.734375 -1.421875 39.40625 -1.421875 
Q 24.03125 -1.421875 14.8125 8.828125 
Q 5.609375 19.09375 5.609375 36.375 
Q 5.609375 53.65625 14.8125 63.9375 
Q 24.03125 74.21875 39.40625 74.21875 
z
" id="DejaVuSans-79"/>
     </defs>
     <g transform="translate(398.1075 433.670625)scale(0.12 -0.12)">
      <use xlink:href="#DejaVuSans-79"/>
      <use x="78.710938" xlink:href="#DejaVuSans-118"/>
      <use x="137.890625" xlink:href="#DejaVuSans-97"/>
      <use x="199.169922" xlink:href="#DejaVuSans-114"/>
      <use x="240.283203" xlink:href="#DejaVuSans-105"/>
      <use x="268.066406" xlink:href="#DejaVuSans-97"/>
      <use x="329.345703" xlink:href="#DejaVuSans-110"/>
      <use x="392.724609" xlink:href="#DejaVuSans-32"/>
      <use x="424.511719" xlink:href="#DejaVuSans-40"/>
      <use x="463.525391" xlink:href="#DejaVuSans-76"/>
      <use x="519.238281" xlink:href="#DejaVuSans-82"/>
      <use x="588.720703" xlink:href="#DejaVuSans-44"/>
      <use x="620.507812" xlink:href="#DejaVuSans-32"/>
      <use x="652.294922" xlink:href="#DejaVuSans-65"/>
      <use x="720.703125" xlink:href="#DejaVuSans-85"/>
      <use x="793.896484" xlink:href="#DejaVuSans-67"/>
      <use x="863.720703" xlink:href="#DejaVuSans-61"/>
      <use x="947.509766" xlink:href="#DejaVuSans-48"/>
      <use x="1011.132812" xlink:href="#DejaVuSans-46"/>
      <use x="1042.919922" xlink:href="#DejaVuSans-55"/>
      <use x="1106.542969" xlink:href="#DejaVuSans-54"/>
      <use x="1170.166016" xlink:href="#DejaVuSans-41"/>
     </g>
    </g>
    <g id="line2d_39">
     <path d="M 364.5075 447.084375 
L 388.5075 447.084375 
" style="fill:none;stroke:#ece133;stroke-linecap:square;stroke-width:2;"/>
    </g>
    <g id="line2d_40"/>
    <g id="text_23">
     <!-- Pancreatic (LR, AUC=0.74) -->
     <defs>
      <path d="M 19.671875 64.796875 
L 19.671875 37.40625 
L 32.078125 37.40625 
Q 38.96875 37.40625 42.71875 40.96875 
Q 46.484375 44.53125 46.484375 51.125 
Q 46.484375 57.671875 42.71875 61.234375 
Q 38.96875 64.796875 32.078125 64.796875 
z
M 9.8125 72.90625 
L 32.078125 72.90625 
Q 44.34375 72.90625 50.609375 67.359375 
Q 56.890625 61.8125 56.890625 51.125 
Q 56.890625 40.328125 50.609375 34.8125 
Q 44.34375 29.296875 32.078125 29.296875 
L 19.671875 29.296875 
L 19.671875 0 
L 9.8125 0 
z
" id="DejaVuSans-80"/>
      <path d="M 48.78125 52.59375 
L 48.78125 44.1875 
Q 44.96875 46.296875 41.140625 47.34375 
Q 37.3125 48.390625 33.40625 48.390625 
Q 24.65625 48.390625 19.8125 42.84375 
Q 14.984375 37.3125 14.984375 27.296875 
Q 14.984375 17.28125 19.8125 11.734375 
Q 24.65625 6.203125 33.40625 6.203125 
Q 37.3125 6.203125 41.140625 7.25 
Q 44.96875 8.296875 48.78125 10.40625 
L 48.78125 2.09375 
Q 45.015625 0.34375 40.984375 -0.53125 
Q 36.96875 -1.421875 32.421875 -1.421875 
Q 20.0625 -1.421875 12.78125 6.34375 
Q 5.515625 14.109375 5.515625 27.296875 
Q 5.515625 40.671875 12.859375 48.328125 
Q 20.21875 56 33.015625 56 
Q 37.15625 56 41.109375 55.140625 
Q 45.0625 54.296875 48.78125 52.59375 
z
" id="DejaVuSans-99"/>
     </defs>
     <g transform="translate(398.1075 451.284375)scale(0.12 -0.12)">
      <use xlink:href="#DejaVuSans-80"/>
      <use x="60.240234" xlink:href="#DejaVuSans-97"/>
      <use x="121.519531" xlink:href="#DejaVuSans-110"/>
      <use x="184.898438" xlink:href="#DejaVuSans-99"/>
      <use x="239.878906" xlink:href="#DejaVuSans-114"/>
      <use x="280.960938" xlink:href="#DejaVuSans-101"/>
      <use x="342.484375" xlink:href="#DejaVuSans-97"/>
      <use x="403.763672" xlink:href="#DejaVuSans-116"/>
      <use x="442.972656" xlink:href="#DejaVuSans-105"/>
      <use x="470.755859" xlink:href="#DejaVuSans-99"/>
      <use x="525.736328" xlink:href="#DejaVuSans-32"/>
      <use x="557.523438" xlink:href="#DejaVuSans-40"/>
      <use x="596.537109" xlink:href="#DejaVuSans-76"/>
      <use x="652.25" xlink:href="#DejaVuSans-82"/>
      <use x="721.732422" xlink:href="#DejaVuSans-44"/>
      <use x="753.519531" xlink:href="#DejaVuSans-32"/>
      <use x="785.306641" xlink:href="#DejaVuSans-65"/>
      <use x="853.714844" xlink:href="#DejaVuSans-85"/>
      <use x="926.908203" xlink:href="#DejaVuSans-67"/>
      <use x="996.732422" xlink:href="#DejaVuSans-61"/>
      <use x="1080.521484" xlink:href="#DejaVuSans-48"/>
      <use x="1144.144531" xlink:href="#DejaVuSans-46"/>
      <use x="1175.931641" xlink:href="#DejaVuSans-55"/>
      <use x="1239.554688" xlink:href="#DejaVuSans-52"/>
      <use x="1303.177734" xlink:href="#DejaVuSans-41"/>
     </g>
    </g>
   </g>
  </g>
 </g>
 <defs>
  <clipPath id="p418a1bd56b">
   <rect height="401.94" width="401.94" x="168.03" y="62.64"/>
  </clipPath>
 </defs>
</svg>
